<?xml version="1.0" encoding="UTF-8" standalone="no"?>
<!-- Created with Inkscape (http://www.inkscape.org/) -->

<svg
   width="1.706865in"
   height="1.9516226in"
   viewBox="0 0 43.35437 49.571214"
   version="1.1"
   id="svg5"
   inkscape:version="1.2.2 (732a01da63, 2022-12-09)"
   sodipodi:docname="WildSpace.svg"
   xml:space="preserve"
   inkscape:export-filename="WildSpacePrintOne.png"
   inkscape:export-xdpi="300"
   inkscape:export-ydpi="300"
   xmlns:inkscape="http://www.inkscape.org/namespaces/inkscape"
   xmlns:sodipodi="http://sodipodi.sourceforge.net/DTD/sodipodi-0.dtd"
   xmlns="http://www.w3.org/2000/svg"
   xmlns:svg="http://www.w3.org/2000/svg"><sodipodi:namedview
     id="namedview7"
     pagecolor="#ffffff"
     bordercolor="#111111"
     borderopacity="1"
     inkscape:pageshadow="0"
     inkscape:pageopacity="0"
     inkscape:pagecheckerboard="1"
     inkscape:document-units="mm"
     showgrid="false"
     showguides="true"
     inkscape:zoom="0.41973038"
     inkscape:cx="158.43504"
     inkscape:cy="1654.6336"
     inkscape:window-width="2560"
     inkscape:window-height="1351"
     inkscape:window-x="-9"
     inkscape:window-y="-9"
     inkscape:window-maximized="1"
     inkscape:current-layer="layer1"
     inkscape:showpageshadow="2"
     inkscape:deskcolor="#d1d1d1"
     inkscape:lockguides="false"
     inkscape:guide-bbox="true" /><defs
     id="defs2" /><g
     inkscape:label="Layer 1"
     inkscape:groupmode="layer"
     id="layer1"
     transform="translate(-568.0639,-234.91505)"><path
       id="path6195"
       style="fill:#ececec;stroke:#000000;stroke-width:0.325394;stroke-linejoin:round;stroke-miterlimit:4.95833;stroke-dashoffset:2.55118;paint-order:markers fill stroke"
       d="m 573.22057,235.07775 c -2.42448,0 -4.49746,1.7444 -4.91558,4.1325 h -0.0784 v 39.9477 h 0.0141 c -0.0141,0.057 -0.0141,0.1147 -0.0141,0.1721 0,2.7578 2.23566,4.9935 4.9935,4.9935 2.75782,0 4.99348,-2.2357 4.99348,-4.9935 -1.3e-4,-0.057 0,-0.1147 -0.0141,-0.1721 h 23.08324 c -0.0141,0.057 -0.0141,0.1147 -0.0141,0.1721 0,2.7578 2.23568,4.9935 4.9935,4.9935 2.75782,0 4.99348,-2.2357 4.99348,-4.9935 -1.3e-4,-0.6233 -0.11759,-1.2411 -0.34438,-1.8214 v -35.6154 c 0.22756,-0.5805 0.34438,-1.1985 0.34438,-1.8221 0,-2.7578 -2.23566,-4.9934 -4.99348,-4.9934 -2.42433,0 -4.4973,1.7444 -4.91541,4.1325 h -23.22677 c -0.41811,-2.3894 -2.49297,-4.1326 -4.91875,-4.1325 z"
       sodipodi:nodetypes="ccccccsscccssccscccc" /><path
       style="fill:#1a1a1a;stroke:none;stroke-width:0.23377;stroke-linejoin:round;stroke-miterlimit:4.95833;stroke-dasharray:none;stroke-dashoffset:2.55118;stroke-opacity:1;paint-order:markers fill stroke"
       d="m 589.40789,273.96575 c -1.20162,-0.4971 -1.71437,-1.5521 -2.70703,-5.5703 -0.45976,-1.8618 -0.63392,-2.0622 -2.04147,-2.3497 -0.59198,-0.1209 -1.35346,-0.6661 -2.49342,-1.7852 l -1.64122,-1.6112 -0.92591,0.9041 c -0.50923,0.4973 -1.03403,0.9042 -1.16623,0.9042 -0.31696,0 -3.27012,-2.9851 -3.27012,-3.3054 0,-0.4193 1.73701,-1.9425 3.53092,-3.0963 2.28688,-1.4709 7.80501,-7.0205 7.57541,-7.6186 -0.23191,-0.6046 1.2057,-2.0514 2.03858,-2.0514 0.44104,0 1.02676,-0.4017 1.95281,-1.3393 0.89643,-0.9077 1.51713,-1.3394 1.92638,-1.3394 0.66629,0 1.96979,1.103 1.96979,1.6668 0,0.1969 -1.26027,1.6339 -2.80033,3.1933 -2.51981,2.551 -3.18245,3.4193 -2.60965,3.4193 0.44873,0 9.51718,-9.4628 10.15138,-10.5927 0.78092,-1.3914 1.32137,-2.0698 1.64862,-2.0698 0.3563,0 3.35038,2.9626 3.35038,3.3151 0,0.1737 -0.79456,0.7837 -1.76544,1.3556 -1.81322,1.0679 -7.73144,6.5806 -7.73144,7.2016 0,0.1725 0.87656,1.1856 1.94802,2.2513 1.07146,1.0657 1.94803,2.0725 1.94803,2.2373 0,0.1648 -1.45634,1.756 -3.23645,3.5361 -2.98944,2.9896 -3.30538,3.2365 -4.13956,3.2365 -1.06565,0 -1.1028,0.1806 -0.29837,1.4548 1.51946,2.4072 2.55971,4.767 2.56029,5.8084 0,1.9171 -1.8724,3.0314 -3.77397,2.2449 z m 2.26467,-1.2774 c 0.62027,-0.6204 0.30113,-1.8531 -1.16056,-4.4816 -0.79921,-1.4368 -1.56474,-2.7243 -1.70145,-2.861 -0.35002,-0.35 -1.53469,0.7923 -1.33965,1.2918 0.0813,0.2073 0.31259,1.0344 0.51462,1.838 0.84332,3.3543 1.0713,3.9499 1.61247,4.2111 0.73566,0.3551 1.72032,0.356 2.07457,0 z m -4.25825,-8.1831 c 0.35977,-0.3757 0.65422,-0.7895 0.65422,-0.9198 0,-0.1302 -0.76772,-0.9986 -1.70639,-1.93 l -1.70639,-1.6933 -1.26999,1.27 -1.27001,1.2701 1.08715,1.1077 c 1.63745,1.6685 3.1604,1.9923 4.21141,0.8953 z m 3.92172,-1.413 c 0.58674,-0.2251 0.46309,-0.5079 -0.34526,-0.7897 -0.63361,-0.2209 -0.73056,-0.1971 -0.73056,0.1791 0,0.7103 0.32929,0.8972 1.07582,0.6106 z m -11.05975,-2.5308 c 0.50939,-0.8721 1.15608,-1.7938 1.43704,-2.0482 0.5583,-0.5052 0.68006,-1.1174 0.22234,-1.1174 -0.15879,0 -0.55076,0.2465 -0.8709,0.5479 -0.3203,0.3013 -1.30396,0.9862 -2.18604,1.5219 -2.19806,1.335 -2.32637,1.6002 -1.29117,2.6683 0.79587,0.8211 0.84984,0.8392 1.29654,0.435 0.2563,-0.232 0.88281,-1.1353 1.39219,-2.0075 z m 9.94822,-0.2156 0.81662,-0.825 -1.48608,-1.486 -1.48593,-1.486 -1.27377,1.2737 -1.27361,1.2737 1.5778,1.5954 1.57781,1.5955 0.36528,-0.5582 c 0.20084,-0.307 0.73273,-0.9294 1.18188,-1.3831 z m 2.60109,1.1625 c 0.22901,-0.7215 -0.44394,-1.3939 -0.9635,-0.9627 -0.33045,0.2742 -0.32522,0.3703 0.0493,0.8846 0.52101,0.717 0.70705,0.7329 0.91486,0.078 z m -10.06358,-1.3615 c 0.98903,-0.9659 1.1324,-1.29 0.57047,-1.29 -0.30765,0 -1.17334,0.9637 -1.69534,1.8873 -0.32988,0.5836 0.20796,0.2979 1.12487,-0.5973 z m 12.95301,-1.2893 1.13822,-1.2169 -1.72221,-1.7052 c -0.94723,-0.9379 -1.79708,-1.7052 -1.88864,-1.7052 -0.26385,0 -2.73866,2.5137 -2.73866,2.7817 0,0.3225 1.73454,2.087 2.0583,2.0939 0.14073,0 0.52899,0.2197 0.86379,0.4816 0.33481,0.2619 0.73071,0.4786 0.87989,0.4816 0.14897,0 0.78325,-0.5422 1.40931,-1.2115 z m -9.35404,-2.3109 1.56561,-1.5797 -0.82909,-0.8554 c -0.45598,-0.4705 -0.94129,-0.8554 -1.07858,-0.8554 -0.28531,0 -3.06405,2.6906 -3.06405,2.9669 0,0.2401 1.46461,1.9033 1.67592,1.9033 0.09,0 0.86902,-0.7108 1.73019,-1.5797 z m 6.15548,-3.4768 c 1.57156,-1.5757 2.85737,-2.9455 2.85737,-3.0439 0,-0.5944 -0.96306,0.1536 -3.483,2.7049 -1.56649,1.5861 -2.84821,2.9558 -2.84821,3.0438 0,0.5623 0.96362,-0.188 3.47384,-2.7048 z m -2.26017,-3.0972 c 2.03537,-2.0423 2.48338,-2.6138 2.23985,-2.8573 -0.2435,-0.2435 -0.81413,0.2166 -2.85301,2.3004 -1.40176,1.4326 -2.54853,2.7184 -2.54853,2.8573 0,0.648 0.8127,0.057 3.16169,-2.3004 z m 7.36177,-2.0037 c 1.18901,-1.1712 1.39349,-1.5311 0.86973,-1.5311 -0.39836,0 -2.3834,1.9689 -2.3834,2.364 0,0.5278 0.29925,0.3631 1.51367,-0.8329 z m 3.68779,-2.8945 0.93128,-0.6328 -0.67672,-0.7065 c -0.3724,-0.3886 -0.75975,-0.7065 -0.86105,-0.7065 -0.10159,0 -0.45496,0.454 -0.7857,1.0089 -1.00181,1.6798 -0.31101,2.1943 1.39219,1.0369 z"
       id="path5282" /></g></svg>
