<?xml version="1.0" encoding="UTF-8" standalone="no"?>
<!-- Created with Inkscape (http://www.inkscape.org/) -->

<svg
   width="1.7068697in"
   height="1.9516183in"
   viewBox="0 0 43.354491 49.571105"
   version="1.1"
   id="svg5"
   inkscape:version="1.2.2 (732a01da63, 2022-12-09)"
   sodipodi:docname="WildSpace.svg"
   xml:space="preserve"
   inkscape:export-filename="WildSpacePrintOne.png"
   inkscape:export-xdpi="300"
   inkscape:export-ydpi="300"
   xmlns:inkscape="http://www.inkscape.org/namespaces/inkscape"
   xmlns:sodipodi="http://sodipodi.sourceforge.net/DTD/sodipodi-0.dtd"
   xmlns="http://www.w3.org/2000/svg"
   xmlns:svg="http://www.w3.org/2000/svg"><sodipodi:namedview
     id="namedview7"
     pagecolor="#ffffff"
     bordercolor="#111111"
     borderopacity="1"
     inkscape:pageshadow="0"
     inkscape:pageopacity="0"
     inkscape:pagecheckerboard="1"
     inkscape:document-units="mm"
     showgrid="false"
     showguides="true"
     inkscape:zoom="0.41973038"
     inkscape:cx="158.43504"
     inkscape:cy="1654.6336"
     inkscape:window-width="2560"
     inkscape:window-height="1351"
     inkscape:window-x="-9"
     inkscape:window-y="-9"
     inkscape:window-maximized="1"
     inkscape:current-layer="layer1"
     inkscape:showpageshadow="2"
     inkscape:deskcolor="#d1d1d1"
     inkscape:lockguides="false"
     inkscape:guide-bbox="true" /><defs
     id="defs2" /><g
     inkscape:label="Layer 1"
     inkscape:groupmode="layer"
     id="layer1"
     transform="translate(-520.08752,-234.39825)"><path
       id="path4276"
       style="fill:#ececec;stroke:#000000;stroke-width:0.325394;stroke-linejoin:round;stroke-miterlimit:4.95833;stroke-dashoffset:2.55118;paint-order:markers fill stroke"
       d="m 525.24362,234.56095 c -2.4244,0 -4.4974,1.7444 -4.9154,4.1324 h -0.078 v 39.9477 h 0.014 c -0.014,0.057 -0.014,0.1147 -0.014,0.1721 0,2.7579 2.2357,4.9935 4.9935,4.9935 2.7577,0 4.9933,-2.2356 4.9933,-4.9935 -10e-5,-0.057 0,-0.1147 -0.014,-0.1721 h 23.0833 c -0.014,0.057 -0.014,0.1147 -0.014,0.1721 0,2.7579 2.2357,4.9935 4.9935,4.9935 2.7579,0 4.9935,-2.2356 4.9935,-4.9935 -10e-5,-0.6233 -0.1176,-1.241 -0.3444,-1.8214 v -35.6154 c 0.2276,-0.5805 0.3443,-1.1985 0.3444,-1.8219 0,-2.758 -2.2356,-4.9935 -4.9935,-4.9935 -2.4245,0 -4.4974,1.7444 -4.9154,4.1324 h -23.2259 c -0.4181,-2.3894 -2.4931,-4.1325 -4.9188,-4.1324 z"
       sodipodi:nodetypes="ccccccsscccssccscccc" /><path
       id="path200213"
       style="opacity:1;fill:#1a1a1a;fill-opacity:1;stroke:none;stroke-width:0.0302539;stroke-linejoin:round;stroke-miterlimit:4.95833;stroke-dasharray:none;stroke-dashoffset:2.55118;stroke-opacity:1;paint-order:markers fill stroke"
       d="m 538.44562,244.64255 c -1.3411,0.4132 -2.4403,1.4905 -3.6758,2.1773 -1.5734,1.0102 -3.1933,1.986 -4.6968,3.0766 -1.5844,0.383 -0.719,2.2283 -0.857,3.3826 0.1636,4.5028 0.3888,9.0012 0.5525,13.5033 -0.3183,1.5431 1.6674,1.0855 2.5799,1.5466 4.7655,1.2575 9.5375,2.4962 14.3085,3.7311 0.9841,-0.5988 1.54,-1.8485 2.33,-2.719 1.4503,-1.9137 2.9541,-3.7925 4.3711,-5.7275 0.2804,-1.1667 0.205,-2.4022 0.3576,-3.5958 0.2521,-4.0613 0.6657,-8.1142 0.8519,-12.1778 -0.9387,-0.3526 -2.1739,-0.4543 -3.2201,-0.7234 -1.2221,-0.3398 -2.457,-0.286 -3.5676,-0.6844 -3.1153,-0.5863 -6.212,-1.2263 -9.3342,-1.7896 z m 0.3074,0.4484 c 0.6813,0.1794 2.6026,0.2996 2.5044,0.6307 -1.386,0.018 -2.762,0.2211 -4.1246,0.4409 0.385,-0.4333 1.0344,-0.8685 1.6202,-1.0716 z m 2.8491,0.9323 c 0.52,-0.054 2.5529,0.069 0.9173,0.1973 -1.99,0.1362 -3.9857,0.4494 -5.9702,0.49 1.5907,-0.5686 3.3658,-0.6916 5.0529,-0.6873 z m 4.1594,0.2244 c 1.3323,0.4502 2.1276,1.9523 3.2986,2.7651 0.4818,0.5404 2.5555,1.9248 0.795,1.8177 -3.7839,0.4648 -7.5606,1.0018 -11.3526,1.3894 -1.1009,-0.6676 -1.7466,-2.034 -2.6581,-2.9766 -0.3931,-0.6421 -2.3038,-2.1253 -0.4746,-1.9576 3.4617,-0.366 6.9251,-0.7263 10.3917,-1.038 z m -0.5085,0.5251 c -1.7894,0.1877 -3.5874,0.332 -5.3789,0.4757 -1.1991,0.073 -2.418,0.2248 -3.5613,0.5717 1.078,1.1809 1.972,2.557 3.181,3.6025 1.306,-0.058 2.5691,-0.3921 3.8801,-0.4437 1.8123,-0.2007 3.6379,-0.3778 5.4347,-0.6574 -0.8239,-1.0546 -1.9843,-1.9539 -2.9359,-2.9478 -0.207,-0.2 -0.4135,-0.4003 -0.6197,-0.601 z m 2.8323,0.2244 c 1.3642,0.3044 2.8777,1.1984 3.2128,2.6455 -0.4396,0.6944 -1.315,-1.0812 -1.9524,-1.3296 -0.3637,-0.37 -1.2286,-0.9064 -1.2604,-1.3159 z m -3.9281,0.1064 c 0.7074,-0.2044 1.374,0.4303 1.6139,0.9021 -0.7442,-0.5016 -2.4413,-0.5112 -2.7535,-0.7056 0.3801,-0.082 0.793,-0.014 1.1396,-0.1965 z m 5.9047,0.2074 c 0.9212,0.2697 2.4635,0.2539 3.0148,0.7412 -0.6115,0.8006 -1.3627,1.6821 -1.8606,0.363 -0.2993,-0.4348 -0.891,-0.7522 -1.1542,-1.1042 z m -7.9461,0.2772 c 1.3899,0.031 2.94,0.1661 4.0502,1.083 0.8416,1.3259 -1.498,1.6419 -2.3804,1.8853 -1.1115,0.2097 -2.2088,-0.1072 -3.2961,-0.3146 -0.9759,-0.037 -2.944,-1.2462 -1.3824,-2.0647 0.9177,-0.4697 1.9806,-0.5904 3.0087,-0.589 z m -3.8081,0.1047 c 1.0953,-0.1128 -0.4095,1.0646 -0.3738,1.2627 -0.3747,-0.4273 -1.4912,-1.2463 -0.2186,-1.1784 0.1901,-0.069 0.3924,-0.083 0.5924,-0.084 z m -4.389,0.5195 c 0.9516,1.0157 1.7633,2.1616 2.6199,3.2588 -1.1244,-0.1387 -2.5243,-0.9852 -3.034,-2.128 -0.1117,-0.3535 0.051,-0.991 0.4141,-1.1308 z m -0.9551,0.6471 c -0.1176,0.9541 1.0318,1.7245 1.282,2.2263 -1.0336,-0.3317 -2.7216,-0.3312 -3.3429,-0.8812 0.6562,-0.4884 1.3273,-0.9824 2.0609,-1.3451 z m 13.9224,0.1447 c 0.5239,0.5228 1.7007,1.3831 0.1598,1.2625 -0.5062,6e-4 -1.9535,0.3025 -0.8057,-0.2144 0.4172,-0.2128 0.6831,-0.5663 0.6459,-1.0481 z m 7.1145,0.2749 c 0.067,0.7286 0.096,2.211 -0.2334,2.6895 0.103,-0.8083 -1.537,-1.2929 -0.6769,-1.8867 0.2952,-0.269 0.5567,-0.6141 0.9103,-0.8028 z m -15.1233,0.7153 c 0.7081,0.6138 2.5816,0.4929 2.788,0.8635 -1.1834,0.2792 -2.2413,0.4291 -2.788,-0.8635 z m 13.4714,0.9717 c 1.2266,0.2463 1.5188,2.5317 1.1988,3.1121 -0.2798,-0.9194 -1.7241,-2.3637 -1.1988,-3.1121 z m -1.0048,0.4576 c 0.9204,0.9711 1.2984,2.3726 1.9891,3.5202 0.9197,1.1532 0.1437,2.4359 -0.1864,3.6436 -0.8764,2.7885 -1.7227,5.605 -2.641,8.3788 -0.8399,-0.053 -1.6145,-1.859 -2.4495,-2.5878 -1.2494,-0.876 -0.029,-2.0719 0.1806,-3.1105 0.5363,-1.638 0.9458,-3.2919 1.4835,-4.944 0.4842,-1.6457 1.1086,-3.2481 1.5939,-4.8905 l 0.029,-0.011 z m -2.7439,0.1735 c 0.6348,0.1599 -1.2771,0.5089 -1.6338,0.6271 -1.2918,0.242 -2.5916,0.2969 -3.9062,0.2965 -0.5779,0.072 -2.0431,-0.033 -0.6496,-0.1953 2.0645,-0.23 4.121,-0.5358 6.1896,-0.7283 z m -18.3922,0.1257 c 1.3373,0.2731 2.7185,0.5014 4.006,0.909 -0.9919,0.5735 -2.1725,1.0224 -2.9218,1.9771 -0.4142,0.465 -1.1598,1.7999 -1.0739,0.3912 0,-1.0751 -0.211,-2.2527 -0.014,-3.2773 z m 18.2945,0.5867 c -0.5909,1.1518 -1.8387,1.7847 -3.0798,1.1261 -0.6714,-0.115 -2.7079,-0.5141 -0.9448,-0.5274 1.3617,-0.049 2.6925,-0.3461 4.0246,-0.5987 z m -10.3505,0.6318 c 1.653,1.8349 3.1031,3.8486 4.7249,5.7148 1.2319,1.5795 2.5452,3.1067 3.7563,4.7054 -0.3228,0.9771 -1.8613,1.3933 -2.6457,2.1414 -1.955,1.2821 -3.8451,2.6768 -5.8541,3.868 -2.2988,-2.5602 -4.4132,-5.2807 -6.6547,-7.8916 -0.4347,-0.8387 -2.4307,-1.9154 -0.8503,-2.6033 2.361,-1.8675 4.7086,-3.7524 7.0363,-5.6608 0.1568,-0.099 0.3033,-0.2254 0.4873,-0.2739 z m -2.1759,0.066 c -0.1721,0.7513 -1.6146,1.4678 -2.3115,2.1678 -1.0612,0.852 -2.0769,1.7764 -3.2044,2.5352 -0.1539,-1.0509 0.6902,-2.2842 1.4568,-3.0906 1.0606,-1.0613 2.5654,-1.6197 4.0591,-1.6124 z m 15.3155,0.4801 c -0.4549,1.2677 -0.84,2.5672 -1.2618,3.8447 -0.5617,1.7025 -1.09,3.411 -1.6688,5.1054 0.7129,0.9516 1.416,1.9163 2.1731,2.8213 0.2877,-0.5424 0.3785,-1.1999 0.5987,-1.7813 0.5445,-1.7182 1.0789,-3.4318 1.6231,-5.1527 0.099,-0.5074 0.4169,-0.9942 0.3782,-1.5126 -0.5511,-1.1031 -1.1861,-2.1705 -1.7649,-3.2585 z m -1.2462,0.063 c -0.087,1.0596 -0.6212,2.1722 -0.9252,3.236 -0.3473,0.8304 -0.6018,2.4234 -1.0787,2.775 0.4544,-2.0569 1.0009,-4.1485 2.0039,-6.011 z m -0.6328,0.1996 c -0.1437,0.9488 -0.7424,2.0129 -0.9886,3.031 -0.059,0.4794 -0.6343,2.0545 -0.4898,0.6718 0.049,-0.8005 0.071,-1.6022 0.103,-2.4035 0.4569,-0.4347 0.895,-0.8916 1.3761,-1.2993 z m -9.1242,0.1912 c 2.3683,1.0071 4.1883,3.0742 5.3643,5.3311 0.1462,0.6139 0.8144,1.664 0.5265,2.0575 -1.9535,-2.1844 -3.7017,-4.5426 -5.5657,-6.8114 -0.097,-0.1772 -0.3663,-0.3629 -0.3251,-0.5772 z m 10.9555,0.1764 c 0.2887,0.336 0.5286,0.7482 0.6768,1.1661 -0.1968,0.137 -0.7751,0.1423 -0.9139,0.583 -0.2317,0.2835 -0.3998,0.6407 -0.6028,0.9218 0.1117,-0.8402 0.5085,-1.6283 0.7288,-2.4502 0.049,-0.068 0.041,-0.1682 0.1117,-0.2207 z m -9.1201,0.1914 c 1.4777,0.2608 2.9554,0.5662 4.4084,0.9434 0,1.3977 0.022,2.8263 -0.1717,4.2038 -0.6908,-0.9644 -1.23,-2.1434 -2.0895,-3.0329 -0.6112,-0.7911 -1.5666,-1.4135 -2.1473,-2.1143 z m -4.0017,0.8291 c -2.1245,1.5672 -4.1998,3.2178 -6.2365,4.8989 2.0315,2.5065 4.0991,4.9962 6.2034,7.4405 2.1463,-1.3737 4.205,-2.8862 6.3137,-4.3185 -0.2413,-1.1416 -1.6728,-2.1183 -2.3382,-3.2056 -1.3214,-1.599 -2.5765,-3.2538 -3.9424,-4.8153 z m 13.5188,0.5553 c 0.5037,0.027 0.5824,0.7343 0.6423,1.1345 0.1073,1.8957 -0.3184,3.8189 -1.1504,5.5115 -0.2512,0.4441 -0.6352,1.182 -1.2379,0.9805 -0.5991,-0.5722 -0.4276,-1.526 -0.448,-2.269 0.1705,-1.7493 0.576,-3.5405 1.5757,-5.0037 0.1741,-0.1557 0.3659,-0.356 0.6183,-0.3538 z m -13.5784,0.1261 c 0.5538,0.5541 2.1313,2.1802 1.8573,2.4359 -1.1416,-0.7442 -2.586,-1.1186 -3.9223,-0.7526 0.4898,-0.6567 1.3595,-1.2145 2.065,-1.6833 z m 14.2849,0.2837 c 0.2693,0.3023 0.4638,0.7237 0.6449,1.0995 -0.2877,0.7751 -0.4212,1.5957 -0.7801,2.3356 0.014,-0.801 0.2671,-1.664 0.1961,-2.5079 0.031,-0.3118 -0.084,-0.6419 -0.061,-0.9272 z m -15.0202,1.6072 c 2.7569,0.077 5.2464,3.0663 4.3373,5.7877 -0.6199,1.7455 -2.9034,2.0474 -4.3748,1.247 -2.0511,-0.9168 -3.5291,-3.4734 -2.5219,-5.6436 0.473,-0.9429 1.5385,-1.4165 2.5594,-1.3911 z m -2.7,0.778 c -0.502,1.0091 -0.7361,2.2719 -0.2865,3.3838 0.5618,1.552 -0.9273,-0.6305 -1.2781,-0.9872 -1.41,-1.035 0.9297,-1.7139 1.5646,-2.3966 z m 14.8674,1.0196 c 0.055,0.6351 -0.1956,1.3659 -0.1895,2.0472 0.036,0.4704 -0.029,0.9512 0.1247,1.4318 -0.2386,0.1137 -0.7501,-0.69 -0.7549,-1.0221 0.3074,-0.8118 0.4992,-1.6651 0.8198,-2.4569 z m 3.5775,0.2824 c -0.014,1.0278 -0.4614,2.1096 -0.7712,3.1199 -0.106,0.6083 -1.0481,2.4625 -0.5362,0.8369 0.4494,-1.3138 0.7712,-2.6752 1.3074,-3.9568 z m -11.3432,0.5043 c 0.6154,0.8471 2.2466,1.9245 1.8642,2.8744 -0.626,0.363 -1.5717,1.245 -2.0713,1.2583 0.9507,-1.1822 0.7444,-2.8236 0.2071,-4.1327 z m 11.478,0.6788 c 0.041,1.1447 0.059,2.5962 -1.0466,3.2466 0.311,-1.0862 0.6307,-2.1994 1.0466,-3.2466 z m -22.5882,0.7077 c 1.8722,2.015 3.5563,4.2089 5.3278,6.3148 0.3974,0.893 -1.4723,-0.5857 -1.8181,-0.8827 -1.6283,-1.3957 -3.0629,-3.1899 -3.5607,-5.31 l 0.014,-0.09 z m 20.7583,0.4412 c 0.045,0.4616 -0.2962,0.973 -0.3702,1.4655 -0.169,0.3579 -0.1742,0.8147 -0.4293,1.1178 -0.2703,-0.2739 -0.5304,-0.6265 -0.7524,-0.976 0.8133,-0.08 1.1781,-0.9341 1.5126,-1.5792 z m -20.7148,1.453 c 0.9427,1.4375 1.9916,2.8587 3.3357,3.9678 1.1327,0.8167 -1.1334,0.02 -1.5673,-0.049 -1.2042,-0.073 -2.1734,-0.6126 -1.8346,-1.9685 0.059,-0.599 -0.2268,-1.446 0.067,-1.9505 z m 5.5625,0.9418 c 1.2079,0.7793 2.7206,1.2738 4.1429,0.7726 -0.7233,0.4783 -2.1422,2.3703 -2.8521,0.926 -0.3884,-0.5525 -1.1133,-1.14 -1.2908,-1.6986 z m 11.4465,0.7567 c 0.5044,0.7745 1.9469,1.6375 1.7305,2.5252 -1.3891,0.763 -1.8571,-1.6541 -1.7305,-2.5252 z m -1.6291,0.063 c 0.1538,0.9415 -0.7482,1.8937 -1.3967,2.5713 -1.1972,1.0729 -2.8658,1.6689 -4.466,1.5349 0.6017,-0.9066 1.8578,-1.3995 2.7462,-2.0918 1.0387,-0.6711 2.0438,-1.3983 3.1165,-2.0144 z m 0.039,1.7648 c -0.083,1.2286 0.2179,2.7836 -0.3084,3.8155 -1.284,-0.3161 -2.6679,-0.5922 -3.8618,-1.0581 1.2679,-0.4435 2.551,-1.0345 3.466,-2.0765 0.2319,-0.2294 0.453,-0.4725 0.7042,-0.6809 z m 1.4665,0.3445 c 0.2864,0.8698 2.1015,0.9178 0.8034,1.8399 -0.3438,0.4829 -1.3006,1.7473 -0.9999,0.3241 0.064,-0.7163 0.041,-1.471 0.1965,-2.164 z" /></g></svg>
