<?xml version="1.0" encoding="UTF-8" standalone="no"?>
<!-- Created with Inkscape (http://www.inkscape.org/) -->

<svg
   width="1.7068697in"
   height="1.9516219in"
   viewBox="0 0 43.354491 49.571196"
   version="1.1"
   id="svg5"
   inkscape:version="1.2.2 (732a01da63, 2022-12-09)"
   sodipodi:docname="WildSpace.svg"
   xml:space="preserve"
   inkscape:export-filename="WildSpacePrintOne.png"
   inkscape:export-xdpi="300"
   inkscape:export-ydpi="300"
   xmlns:inkscape="http://www.inkscape.org/namespaces/inkscape"
   xmlns:sodipodi="http://sodipodi.sourceforge.net/DTD/sodipodi-0.dtd"
   xmlns="http://www.w3.org/2000/svg"
   xmlns:svg="http://www.w3.org/2000/svg"><sodipodi:namedview
     id="namedview7"
     pagecolor="#ffffff"
     bordercolor="#111111"
     borderopacity="1"
     inkscape:pageshadow="0"
     inkscape:pageopacity="0"
     inkscape:pagecheckerboard="1"
     inkscape:document-units="mm"
     showgrid="false"
     showguides="true"
     inkscape:zoom="0.41973038"
     inkscape:cx="158.43504"
     inkscape:cy="1654.6336"
     inkscape:window-width="2560"
     inkscape:window-height="1351"
     inkscape:window-x="-9"
     inkscape:window-y="-9"
     inkscape:window-maximized="1"
     inkscape:current-layer="layer1"
     inkscape:showpageshadow="2"
     inkscape:deskcolor="#d1d1d1"
     inkscape:lockguides="false"
     inkscape:guide-bbox="true" /><defs
     id="defs2" /><g
     inkscape:label="Layer 1"
     inkscape:groupmode="layer"
     id="layer1"
     transform="translate(-617.81299,-176.14426)"><path
       id="path6533"
       style="fill:#1a1a1a;stroke:#000000;stroke-width:0.325394;stroke-linejoin:round;stroke-miterlimit:4.95833;stroke-dashoffset:2.55118;paint-order:markers fill stroke"
       d="m 622.96912,176.30695 c -2.42451,0 -4.49741,1.7444 -4.91541,4.1325 h -0.078 v 39.9477 h 0.014 c -0.014,0.057 -0.014,0.1147 -0.014,0.1721 0,2.7578 2.2355,4.9935 4.99351,4.9935 2.7577,0 4.9933,-2.2357 4.9933,-4.9935 -1e-4,-0.057 0,-0.1147 -0.014,-0.1721 h 23.0835 c -0.014,0.057 -0.014,0.1147 -0.014,0.1721 0,2.7578 2.2356,4.9935 4.9933,4.9935 2.758,0 4.9935,-2.2357 4.9935,-4.9935 0,-0.6233 -0.1176,-1.2411 -0.3444,-1.8214 v -35.6154 c 0.2277,-0.5805 0.3444,-1.1985 0.3444,-1.8221 0,-2.7578 -2.2355,-4.9934 -4.9935,-4.9934 -2.4243,0 -4.4973,1.7444 -4.9153,4.1325 h -23.2259 c -0.4183,-2.3894 -2.4931,-4.1326 -4.9189,-4.1325 z"
       sodipodi:nodetypes="ccccccsscccssccscccc" /><path
       style="fill:#ececec;stroke:none;stroke-width:0.23377;stroke-linejoin:round;stroke-miterlimit:4.95833;stroke-dasharray:none;stroke-dashoffset:2.55118;stroke-opacity:1;paint-order:markers fill stroke"
       d="m 625.83012,217.27475 c -0.2679,-0.1194 -0.8706,-0.6175 -1.3393,-1.1072 -0.7752,-0.8095 -0.8524,-1.0189 -0.8524,-2.3121 0,-1.0006 0.1234,-1.5585 0.417,-1.8827 0.2679,-0.296 0.364,-0.6633 0.2686,-1.0275 -0.1277,-0.4873 0.4585,-1.1617 4.176,-4.8082 3.4367,-3.3708 4.4223,-4.2102 4.8016,-4.0899 0.503,0.1597 1.4166,-0.4725 1.4166,-0.9803 0,-0.1551 -0.3287,-0.5969 -0.7306,-0.9819 -0.4017,-0.3849 -0.7305,-0.8735 -0.7305,-1.0858 0,-0.2123 0.9063,-1.2876 2.014,-2.3896 2.1401,-2.1288 3.0504,-2.5189 3.578,-1.533 0.1379,0.2588 0.4845,0.5444 0.769,0.6347 0.4227,0.1341 0.9143,-0.2302 2.688,-1.9925 1.816,-1.8042 2.1473,-2.2506 2.0283,-2.732 -0.2033,-0.8217 2.5182,-3.5738 3.3254,-3.3627 0.3942,0.103 0.7898,-0.085 1.4701,-0.7 0.512,-0.4625 1.0676,-0.8355 1.2346,-0.8289 0.1671,0.01 1.6733,0.4796 3.3473,1.0512 2.2431,0.7659 3.0661,1.1554 3.1287,1.4806 0.055,0.2891 -0.5504,1.0807 -1.7588,2.297 -1.4144,1.4234 -1.8134,1.9723 -1.7127,2.3561 0.1983,0.7548 -2.6907,3.6034 -3.459,3.4106 -0.7702,-0.1933 -0.9438,0.2429 -0.3501,0.8802 0.2748,0.2949 0.4996,0.6566 0.4996,0.8038 0,0.3361 -2.2419,2.5626 -2.5804,2.5626 -0.1379,0 -0.5011,-0.2339 -0.8079,-0.5198 l -0.5582,-0.5198 -3.6358,3.6245 c -2.9663,2.9572 -3.6119,3.7225 -3.5055,4.1556 0.1879,0.7646 -8.2175,9.1905 -8.9714,8.9933 -0.2824,-0.074 -0.6877,0.04 -0.9323,0.2609 -0.497,0.45 -2.5173,0.6638 -3.2379,0.3428 z m 2.449,-1.3416 c 0.4493,-0.3286 0.3914,-0.4262 -1.1909,-2.0086 -1.5824,-1.5824 -1.6799,-1.6403 -2.0085,-1.1909 -0.5998,0.8201 -0.4238,1.8106 0.4825,2.7169 0.9063,0.9064 1.8968,1.0822 2.7169,0.4826 z m 5.5805,-4.1576 c 1.9455,-1.9408 3.5372,-3.6393 3.5372,-3.7744 0,-0.6715 -0.9079,0.048 -4.1129,3.2586 -2.0285,2.0321 -3.4277,3.6176 -3.3307,3.7743 0.091,0.1488 0.2126,0.2704 0.2681,0.2704 0.055,0 1.6931,-1.588 3.6383,-3.5289 z m -1.2422,-1.5538 c 2.4186,-2.4227 3.5172,-3.6826 3.3184,-3.8054 -0.1923,-0.1188 -1.5337,1.0506 -3.8013,3.3141 -3.1212,3.1156 -3.9258,4.1129 -3.3184,4.1129 0.1016,0 1.8127,-1.6297 3.8013,-3.6216 z m -1.3128,-1.3658 c 2.5513,-2.5559 3.4465,-3.5999 3.2532,-3.7932 -0.1933,-0.1934 -1.2467,0.7105 -3.8276,3.2841 -1.9585,1.953 -3.5608,3.6599 -3.5608,3.7932 0,0.6686 0.9147,-0.058 4.1352,-3.2841 z m -1.5446,-1.1505 c 1.9233,-1.9025 3.4971,-3.6101 3.4971,-3.7947 0,-0.1845 -0.096,-0.2989 -0.2126,-0.2542 -0.1176,0.045 -1.8237,1.6396 -3.7929,3.5444 -3.0526,2.9527 -3.851,3.9638 -3.1299,3.9638 0.077,0 1.7148,-1.5567 3.6383,-3.4593 z m 9.0979,-2.4765 c 0,-0.3488 -2.7122,-3.0741 -3.0594,-3.0741 -0.1509,0 -0.4802,0.2276 -0.732,0.5057 -0.4538,0.5016 -0.4439,0.5192 1.1861,2.1019 1.6003,1.5539 1.6566,1.5846 2.1245,1.1611 0.2644,-0.2392 0.4808,-0.5518 0.4808,-0.6946 z m 2.7471,-2.5333 c 0.7658,-0.774 1.3926,-1.5199 1.3926,-1.6576 0,-0.3024 -2.7755,-3.0229 -3.0839,-3.0229 -0.119,0 -0.9024,0.6909 -1.7392,1.5352 l -1.5215,1.5352 1.4855,1.5087 c 0.817,0.8298 1.6179,1.5087 1.7797,1.5087 0.1618,0 0.9208,-0.6333 1.6868,-1.4073 z m -4.1396,-4.1397 c 0.7659,-0.774 1.3925,-1.5167 1.3925,-1.6504 0,-0.1339 -0.2339,-0.4436 -0.5198,-0.6884 -0.5142,-0.4402 -0.5376,-0.4276 -2.1177,1.1525 -1.5752,1.5753 -1.5912,1.6046 -1.1469,2.0956 0.2479,0.2739 0.5741,0.498 0.725,0.498 0.1509,0 0.9008,-0.6333 1.6669,-1.4073 z m 9.0081,-0.7291 2.1266,-2.1364 -1.6758,-1.6629 c -1.0295,-1.0216 -1.74,-1.5586 -1.8427,-1.3926 -0.091,0.1486 0.014,0.4416 0.2138,0.651 0.5037,0.5038 0.4923,1.32 -0.019,1.32 -0.2197,0 -0.5421,-0.1917 -0.7163,-0.4261 -0.2452,-0.3296 -0.4131,-0.3673 -0.741,-0.1663 -0.7759,0.4751 -0.9926,1.0718 -0.5177,1.425 0.2344,0.1744 0.4261,0.4966 0.4261,0.7163 0,0.5201 -0.8197,0.5187 -1.3408,0 -0.3732,-0.3732 -0.445,-0.3583 -1.0132,0.2098 l -0.6112,0.6114 1.4901,1.4948 c 0.8195,0.8221 1.626,1.4948 1.792,1.4948 0.1662,0 1.259,-0.9614 2.4286,-2.1364 z m 1.5612,1.1199 c 0.6167,-0.5794 0.7221,-0.9316 0.2785,-0.9316 -0.4043,0 -1.176,0.7438 -1.176,1.1335 0,0.4637 0.2485,0.4078 0.8975,-0.2019 z m 1.6863,-7.7199 -2.3377,-2.3377 -0.9145,0.9171 -0.9143,0.9171 2.352,2.3207 2.3521,2.3206 0.9,-0.9001 0.9001,-0.9 z m 4.0435,-0.6905 c 0.6409,-0.6312 1.1651,-1.2746 1.1651,-1.4298 0,-0.1553 -1.0136,-0.6192 -2.2525,-1.0309 l -2.2525,-0.7486 -0.674,0.6454 -0.6742,0.6454 1.5194,1.5331 c 0.8357,0.8431 1.6283,1.5329 1.7616,1.5329 0.1335,0 0.7664,-0.5164 1.4071,-1.1475 z"
       id="path6535" /></g></svg>
