<?xml version="1.0" encoding="UTF-8" standalone="no"?>
<!-- Created with Inkscape (http://www.inkscape.org/) -->

<svg
   width="1.7068722in"
   height="1.9516219in"
   viewBox="0 0 43.354555 49.571196"
   version="1.1"
   id="svg5"
   inkscape:version="1.2.2 (732a01da63, 2022-12-09)"
   sodipodi:docname="WildSpace.svg"
   xml:space="preserve"
   inkscape:export-filename="WildSpacePrintOne.png"
   inkscape:export-xdpi="300"
   inkscape:export-ydpi="300"
   xmlns:inkscape="http://www.inkscape.org/namespaces/inkscape"
   xmlns:sodipodi="http://sodipodi.sourceforge.net/DTD/sodipodi-0.dtd"
   xmlns="http://www.w3.org/2000/svg"
   xmlns:svg="http://www.w3.org/2000/svg"><sodipodi:namedview
     id="namedview7"
     pagecolor="#ffffff"
     bordercolor="#111111"
     borderopacity="1"
     inkscape:pageshadow="0"
     inkscape:pageopacity="0"
     inkscape:pagecheckerboard="1"
     inkscape:document-units="mm"
     showgrid="false"
     showguides="true"
     inkscape:zoom="0.41973038"
     inkscape:cx="158.43504"
     inkscape:cy="1654.6336"
     inkscape:window-width="2560"
     inkscape:window-height="1351"
     inkscape:window-x="-9"
     inkscape:window-y="-9"
     inkscape:window-maximized="1"
     inkscape:current-layer="layer1"
     inkscape:showpageshadow="2"
     inkscape:deskcolor="#d1d1d1"
     inkscape:lockguides="false"
     inkscape:guide-bbox="true" /><defs
     id="defs2" /><g
     inkscape:label="Layer 1"
     inkscape:groupmode="layer"
     id="layer1"
     transform="translate(-520.08783,-177.69455)"><path
       id="path6523"
       style="fill:#1a1a1a;stroke:#000000;stroke-width:0.325394;stroke-linejoin:round;stroke-miterlimit:4.95833;stroke-dashoffset:2.55118;paint-order:markers fill stroke"
       d="m 525.24394,177.85725 c -2.4244,0 -4.4974,1.7444 -4.9154,4.1325 h -0.078 v 39.9477 h 0.014 c -0.014,0.057 -0.014,0.1147 -0.014,0.1721 0,2.7579 2.2357,4.9935 4.9935,4.9935 2.7577,0 4.9933,-2.2356 4.9933,-4.9935 -10e-5,-0.057 0,-0.1147 -0.014,-0.1721 h 23.0833 c -0.014,0.057 -0.014,0.1147 -0.014,0.1721 0,2.7579 2.2357,4.9935 4.9935,4.9935 2.7579,0 4.9935,-2.2356 4.9935,-4.9935 -10e-5,-0.6233 -0.1176,-1.2411 -0.3444,-1.8214 v -35.6154 c 0.2276,-0.5805 0.3443,-1.1986 0.3444,-1.8221 0,-2.7578 -2.2356,-4.9934 -4.9935,-4.9934 -2.4245,0 -4.4974,1.7444 -4.9154,4.1325 h -23.2259 c -0.4181,-2.3894 -2.4931,-4.1326 -4.9188,-4.1325 z"
       sodipodi:nodetypes="ccccccsscccssccscccc" /><path
       id="path200746"
       style="opacity:1;fill:#ececec;fill-opacity:1;stroke:none;stroke-width:0.0302539;stroke-linejoin:round;stroke-miterlimit:4.95833;stroke-dasharray:none;stroke-dashoffset:2.55118;stroke-opacity:1;paint-order:markers fill stroke"
       d="m 538.44594,187.98115 c -1.3411,0.4133 -2.4403,1.4905 -3.6758,2.1774 -1.5734,1.0102 -3.1933,1.9859 -4.6968,3.0765 -1.5844,0.383 -0.719,2.2283 -0.857,3.3827 0.1636,4.5027 0.3888,9.0012 0.5525,13.5033 -0.3183,1.5431 1.6674,1.0854 2.5799,1.5466 4.7655,1.2576 9.5375,2.4961 14.3085,3.731 0.9841,-0.5988 1.54,-1.8484 2.33,-2.7189 1.4503,-1.9136 2.9541,-3.7925 4.3711,-5.7276 0.2804,-1.1666 0.205,-2.4022 0.3576,-3.5957 0.2521,-4.0613 0.6657,-8.1141 0.8519,-12.1778 -0.9387,-0.3527 -2.1739,-0.4543 -3.2201,-0.7234 -1.2221,-0.3398 -2.457,-0.286 -3.5676,-0.6844 -3.1153,-0.5862 -6.212,-1.2263 -9.3342,-1.7897 z m 0.3074,0.4485 c 0.6813,0.1794 2.6026,0.2995 2.5044,0.6308 -1.386,0.018 -2.762,0.221 -4.1246,0.4408 0.385,-0.4333 1.0344,-0.8684 1.6202,-1.0716 z m 2.8491,0.9323 c 0.52,-0.054 2.5529,0.069 0.9173,0.1973 -1.99,0.1362 -3.9857,0.4495 -5.9702,0.49 1.5907,-0.5686 3.3658,-0.6915 5.0529,-0.6873 z m 4.1594,0.2244 c 1.3323,0.4502 2.1276,1.9523 3.2986,2.765 0.4818,0.5405 2.5555,1.9248 0.795,1.8177 -3.7839,0.4649 -7.5606,1.0018 -11.3526,1.3894 -1.1009,-0.6676 -1.7466,-2.034 -2.6581,-2.9766 -0.3931,-0.642 -2.3038,-2.1253 -0.4746,-1.9575 3.4617,-0.3661 6.9251,-0.7263 10.3917,-1.038 z m -0.5085,0.525 c -1.7894,0.1877 -3.5874,0.332 -5.3789,0.4758 -1.1991,0.073 -2.418,0.2248 -3.5613,0.5717 1.078,1.1808 1.972,2.5571 3.181,3.6026 1.306,-0.058 2.5691,-0.3922 3.8801,-0.4438 1.8123,-0.2006 3.6379,-0.3778 5.4347,-0.6573 -0.8239,-1.0547 -1.9843,-1.954 -2.9359,-2.9479 -0.207,-0.1999 -0.4135,-0.4003 -0.6197,-0.6011 z m 2.8323,0.2244 c 1.3642,0.3044 2.8777,1.1984 3.2128,2.6455 -0.4396,0.6944 -1.315,-1.0812 -1.9524,-1.3296 -0.3637,-0.37 -1.2286,-0.9064 -1.2604,-1.3159 z m -3.9281,0.1064 c 0.7074,-0.2043 1.374,0.4303 1.6139,0.9021 -0.7442,-0.5015 -2.4413,-0.5113 -2.7535,-0.7056 0.3801,-0.082 0.793,-0.014 1.1396,-0.1965 z m 5.9047,0.2074 c 0.9212,0.2698 2.4635,0.254 3.0148,0.7413 -0.6115,0.8006 -1.3627,1.6821 -1.8606,0.3629 -0.2993,-0.4347 -0.891,-0.7522 -1.1542,-1.1042 z m -7.9461,0.2772 c 1.3899,0.031 2.94,0.1661 4.0502,1.083 0.8416,1.3259 -1.498,1.6419 -2.3804,1.8853 -1.1115,0.2097 -2.2088,-0.1072 -3.2961,-0.3146 -0.9759,-0.037 -2.944,-1.2462 -1.3824,-2.0647 0.9177,-0.4697 1.9806,-0.5904 3.0087,-0.589 z m -3.8081,0.1046 c 1.0953,-0.1128 -0.4095,1.0647 -0.3738,1.2628 -0.3747,-0.4273 -1.4912,-1.2464 -0.2186,-1.1784 0.1901,-0.069 0.3924,-0.083 0.5924,-0.084 z m -4.389,0.5196 c 0.9516,1.0157 1.7633,2.1615 2.6199,3.2587 -1.1244,-0.1386 -2.5243,-0.9851 -3.034,-2.128 -0.1117,-0.3534 0.051,-0.9909 0.4141,-1.1307 z m -0.9551,0.647 c -0.1176,0.9541 1.0318,1.7246 1.282,2.2264 -1.0336,-0.3317 -2.7216,-0.3313 -3.3429,-0.8813 0.6562,-0.4883 1.3273,-0.9824 2.0609,-1.3451 z m 13.9224,0.1448 c 0.5239,0.5228 1.7007,1.3831 0.1598,1.2625 -0.5062,6e-4 -1.9535,0.3024 -0.8057,-0.2144 0.4172,-0.2128 0.6831,-0.5664 0.6459,-1.0481 z m 7.1145,0.2748 c 0.067,0.7288 0.096,2.2111 -0.2334,2.6896 0.103,-0.8084 -1.537,-1.2929 -0.6769,-1.8867 0.2952,-0.269 0.5567,-0.614 0.9103,-0.8029 z m -15.1233,0.7154 c 0.7081,0.6137 2.5816,0.4929 2.788,0.8635 -1.1834,0.2792 -2.2413,0.4291 -2.788,-0.8635 z m 13.4714,0.9717 c 1.2266,0.2462 1.5188,2.5317 1.1988,3.112 -0.2798,-0.9194 -1.7241,-2.3636 -1.1988,-3.112 z m -1.0048,0.4576 c 0.9204,0.9711 1.2984,2.3726 1.9891,3.5202 0.9197,1.1532 0.1437,2.4358 -0.1864,3.6436 -0.8764,2.7885 -1.7227,5.605 -2.641,8.3787 -0.8399,-0.053 -1.6145,-1.8589 -2.4495,-2.5877 -1.2494,-0.8761 -0.029,-2.0719 0.1806,-3.1105 0.5363,-1.638 0.9458,-3.2919 1.4835,-4.944 0.4842,-1.6457 1.1086,-3.2481 1.5939,-4.8905 l 0.029,-0.011 z m -2.7439,0.1735 c 0.6348,0.1597 -1.2771,0.5088 -1.6338,0.6271 -1.2918,0.2419 -2.5916,0.2969 -3.9062,0.2965 -0.5779,0.072 -2.0431,-0.033 -0.6496,-0.1953 2.0645,-0.2299 4.121,-0.5357 6.1896,-0.7283 z m -18.3922,0.1257 c 1.3373,0.2731 2.7185,0.5013 4.006,0.9089 -0.9919,0.5735 -2.1725,1.0225 -2.9218,1.9772 -0.4142,0.465 -1.1598,1.7998 -1.0739,0.3912 0,-1.0751 -0.211,-2.2527 -0.014,-3.2773 z m 18.2945,0.5867 c -0.5909,1.1518 -1.8387,1.7847 -3.0798,1.1261 -0.6714,-0.115 -2.7079,-0.5142 -0.9448,-0.5274 1.3617,-0.049 2.6925,-0.3461 4.0246,-0.5987 z m -10.3505,0.6317 c 1.653,1.835 3.1031,3.8487 4.7249,5.7149 1.2319,1.5795 2.5452,3.1067 3.7563,4.7054 -0.3228,0.9771 -1.8613,1.3933 -2.6457,2.1414 -1.955,1.2821 -3.8451,2.6768 -5.8541,3.868 -2.2988,-2.5602 -4.4132,-5.2807 -6.6547,-7.8917 -0.4347,-0.8386 -2.4307,-1.9153 -0.8503,-2.6032 2.361,-1.8675 4.7086,-3.7524 7.0363,-5.6609 0.1568,-0.099 0.3033,-0.2254 0.4873,-0.2739 z m -2.1759,0.066 c -0.1721,0.7513 -1.6146,1.4678 -2.3115,2.1678 -1.0612,0.852 -2.0769,1.7765 -3.2044,2.5353 -0.1539,-1.0509 0.6902,-2.2842 1.4568,-3.0907 1.0606,-1.0612 2.5654,-1.6197 4.0591,-1.6124 z m 15.3155,0.4802 c -0.4549,1.2677 -0.84,2.5672 -1.2618,3.8447 -0.5617,1.7024 -1.09,3.411 -1.6688,5.1054 0.7129,0.9515 1.416,1.9162 2.1731,2.8213 0.2877,-0.5424 0.3785,-1.1999 0.5987,-1.7814 0.5445,-1.7182 1.0789,-3.4318 1.6231,-5.1526 0.099,-0.5075 0.4169,-0.9943 0.3782,-1.5127 -0.5511,-1.1031 -1.1861,-2.1704 -1.7649,-3.2585 z m -1.2462,0.063 c -0.087,1.0596 -0.6212,2.1722 -0.9252,3.236 -0.3473,0.8303 -0.6018,2.4234 -1.0787,2.7749 0.4544,-2.0569 1.0009,-4.1485 2.0039,-6.0109 z m -0.6328,0.1996 c -0.1437,0.9488 -0.7424,2.0128 -0.9886,3.031 -0.059,0.4793 -0.6343,2.0545 -0.4898,0.6717 0.049,-0.8005 0.071,-1.6022 0.103,-2.4034 0.4569,-0.4347 0.895,-0.8916 1.3761,-1.2993 z m -9.1242,0.1912 c 2.3683,1.007 4.1883,3.0742 5.3643,5.3311 0.1462,0.6139 0.8144,1.664 0.5265,2.0575 -1.9535,-2.1845 -3.7017,-4.5427 -5.5657,-6.8114 -0.097,-0.1772 -0.3663,-0.363 -0.3251,-0.5772 z m 10.9555,0.1764 c 0.2887,0.336 0.5286,0.7482 0.6768,1.166 -0.1968,0.1371 -0.7751,0.1423 -0.9139,0.5831 -0.2317,0.2835 -0.3998,0.6407 -0.6028,0.9218 0.1117,-0.8402 0.5085,-1.6283 0.7288,-2.4503 0.049,-0.068 0.041,-0.1681 0.1117,-0.2206 z m -9.1201,0.1914 c 1.4777,0.2608 2.9554,0.5662 4.4084,0.9434 0,1.3977 0.022,2.8263 -0.1717,4.2038 -0.6908,-0.9645 -1.23,-2.1435 -2.0895,-3.033 -0.6112,-0.7911 -1.5666,-1.4135 -2.1473,-2.1142 z m -4.0017,0.829 c -2.1245,1.5673 -4.1998,3.2179 -6.2365,4.899 2.0315,2.5064 4.0991,4.9961 6.2034,7.4405 2.1463,-1.3737 4.205,-2.8862 6.3137,-4.3185 -0.2413,-1.1416 -1.6728,-2.1183 -2.3382,-3.2056 -1.3214,-1.5991 -2.5765,-3.2538 -3.9424,-4.8154 z m 13.5188,0.5553 c 0.5037,0.027 0.5824,0.7343 0.6423,1.1346 0.1073,1.8957 -0.3184,3.8188 -1.1504,5.5115 -0.2512,0.4441 -0.6352,1.182 -1.2379,0.9805 -0.5991,-0.5723 -0.4276,-1.526 -0.448,-2.2691 0.1705,-1.7492 0.576,-3.5405 1.5757,-5.0037 0.1741,-0.1556 0.3659,-0.3559 0.6183,-0.3538 z m -13.5784,0.1262 c 0.5538,0.554 2.1313,2.1801 1.8573,2.4358 -1.1416,-0.7441 -2.586,-1.1186 -3.9223,-0.7526 0.4898,-0.6566 1.3595,-1.2144 2.065,-1.6832 z m 14.2849,0.2836 c 0.2693,0.3023 0.4638,0.7238 0.6449,1.0995 -0.2877,0.7751 -0.4212,1.5957 -0.7801,2.3356 0.014,-0.801 0.2671,-1.664 0.1961,-2.5079 0.031,-0.3118 -0.084,-0.6418 -0.061,-0.9272 z m -15.0202,1.6072 c 2.7569,0.077 5.2464,3.0663 4.3373,5.7878 -0.6199,1.7455 -2.9034,2.0474 -4.3748,1.2469 -2.0511,-0.9167 -3.5291,-3.4734 -2.5219,-5.6435 0.473,-0.943 1.5385,-1.4166 2.5594,-1.3912 z m -2.7,0.778 c -0.502,1.0091 -0.7361,2.2719 -0.2865,3.3838 0.5618,1.5521 -0.9273,-0.6305 -1.2781,-0.9871 -1.41,-1.0351 0.9297,-1.714 1.5646,-2.3967 z m 14.8674,1.0196 c 0.055,0.6351 -0.1956,1.366 -0.1895,2.0472 0.036,0.4705 -0.029,0.9513 0.1247,1.4319 -0.2386,0.1136 -0.7501,-0.6901 -0.7549,-1.0222 0.3074,-0.8118 0.4992,-1.6651 0.8198,-2.4569 z m 3.5775,0.2824 c -0.014,1.0279 -0.4614,2.1096 -0.7712,3.12 -0.106,0.6083 -1.0481,2.4625 -0.5362,0.8368 0.4494,-1.3138 0.7712,-2.6752 1.3074,-3.9568 z m -11.3432,0.5043 c 0.6154,0.8471 2.2466,1.9246 1.8642,2.8745 -0.626,0.363 -1.5717,1.2449 -2.0713,1.2582 0.9507,-1.1822 0.7444,-2.8235 0.2071,-4.1327 z m 11.478,0.6789 c 0.041,1.1446 0.059,2.5961 -1.0466,3.2466 0.311,-1.0862 0.6307,-2.1994 1.0466,-3.2466 z m -22.5882,0.7077 c 1.8722,2.015 3.5563,4.2088 5.3278,6.3147 0.3974,0.8931 -1.4723,-0.5857 -1.8181,-0.8827 -1.6283,-1.3957 -3.0629,-3.1898 -3.5607,-5.3099 l 0.014,-0.09 z m 20.7583,0.4412 c 0.045,0.4615 -0.2962,0.973 -0.3702,1.4654 -0.169,0.358 -0.1742,0.8147 -0.4293,1.1178 -0.2703,-0.2739 -0.5304,-0.6265 -0.7524,-0.976 0.8133,-0.08 1.1781,-0.934 1.5126,-1.5792 z m -20.7148,1.453 c 0.9427,1.4374 1.9916,2.8586 3.3357,3.9677 1.1327,0.8167 -1.1334,0.02 -1.5673,-0.049 -1.2042,-0.073 -2.1734,-0.6126 -1.8346,-1.9685 0.059,-0.599 -0.2268,-1.446 0.067,-1.9505 z m 5.5625,0.9417 c 1.2079,0.7793 2.7206,1.2739 4.1429,0.7727 -0.7233,0.4782 -2.1422,2.3703 -2.8521,0.9259 -0.3884,-0.5525 -1.1133,-1.14 -1.2908,-1.6986 z m 11.4465,0.7567 c 0.5044,0.7745 1.9469,1.6375 1.7305,2.5253 -1.3891,0.763 -1.8571,-1.6542 -1.7305,-2.5253 z m -1.6291,0.063 c 0.1538,0.9415 -0.7482,1.8937 -1.3967,2.5714 -1.1972,1.0729 -2.8658,1.6688 -4.466,1.5348 0.6017,-0.9065 1.8578,-1.3995 2.7462,-2.0917 1.0387,-0.6712 2.0438,-1.3983 3.1165,-2.0145 z m 0.039,1.7649 c -0.083,1.2285 0.2179,2.7836 -0.3084,3.8154 -1.284,-0.316 -2.6679,-0.5922 -3.8618,-1.058 1.2679,-0.4436 2.551,-1.0345 3.466,-2.0765 0.2319,-0.2294 0.453,-0.4725 0.7042,-0.6809 z m 1.4665,0.3444 c 0.2864,0.8699 2.1015,0.9178 0.8034,1.84 -0.3438,0.4828 -1.3006,1.7473 -0.9999,0.324 0.064,-0.7163 0.041,-1.4709 0.1965,-2.164 z" /></g></svg>
