<?xml version="1.0" encoding="UTF-8" standalone="no"?>
<!-- Created with Inkscape (http://www.inkscape.org/) -->

<svg
   width="1.7074237in"
   height="1.9516268in"
   viewBox="0 0 43.368562 49.57132"
   version="1.1"
   id="svg5"
   inkscape:version="1.2.2 (732a01da63, 2022-12-09)"
   sodipodi:docname="WildSpace.svg"
   xml:space="preserve"
   inkscape:export-filename="WildSpacePrintOne.png"
   inkscape:export-xdpi="300"
   inkscape:export-ydpi="300"
   xmlns:inkscape="http://www.inkscape.org/namespaces/inkscape"
   xmlns:sodipodi="http://sodipodi.sourceforge.net/DTD/sodipodi-0.dtd"
   xmlns="http://www.w3.org/2000/svg"
   xmlns:svg="http://www.w3.org/2000/svg"><sodipodi:namedview
     id="namedview7"
     pagecolor="#ffffff"
     bordercolor="#111111"
     borderopacity="1"
     inkscape:pageshadow="0"
     inkscape:pageopacity="0"
     inkscape:pagecheckerboard="1"
     inkscape:document-units="mm"
     showgrid="false"
     showguides="true"
     inkscape:zoom="0.41973038"
     inkscape:cx="158.43504"
     inkscape:cy="1654.6336"
     inkscape:window-width="2560"
     inkscape:window-height="1351"
     inkscape:window-x="-9"
     inkscape:window-y="-9"
     inkscape:window-maximized="1"
     inkscape:current-layer="layer1"
     inkscape:showpageshadow="2"
     inkscape:deskcolor="#d1d1d1"
     inkscape:lockguides="false"
     inkscape:guide-bbox="true" /><defs
     id="defs2" /><g
     inkscape:label="Layer 1"
     inkscape:groupmode="layer"
     id="layer1"
     transform="translate(-472.09708,-233.88126)"><path
       id="path1758"
       style="fill:#ececec;stroke:#000000;stroke-width:0.325394;stroke-linejoin:round;stroke-miterlimit:4.95833;stroke-dashoffset:2.55118;paint-order:markers fill stroke"
       d="m 477.25362,234.04405 c -2.42433,0 -4.49746,1.7444 -4.91542,4.1325 h -0.0784 v 39.9477 h 0.0141 c 0,0.057 -0.0141,0.1147 -0.0141,0.1721 0,2.7578 2.23567,4.9935 4.99348,4.9935 2.75783,0 4.9935,-2.2357 4.9935,-4.9935 -1.6e-4,-0.057 0,-0.1147 0,-0.1721 h 23.08327 c 0,0.057 -0.0141,0.1147 -0.0141,0.1721 0,2.7578 2.23566,4.9935 4.99349,4.9935 2.75783,0 4.99349,-2.2357 4.99349,-4.9935 -1.4e-4,-0.6233 -0.11759,-1.2411 -0.34438,-1.8214 v -35.6154 c 0.22755,-0.5806 0.34424,-1.1986 0.34438,-1.8221 0,-2.7578 -2.23566,-4.9935 -4.99349,-4.9935 -2.42446,0 -4.49744,1.7444 -4.91555,4.1326 h -23.22575 c -0.41825,-2.3894 -2.49312,-4.1326 -4.91874,-4.1326 z"
       sodipodi:nodetypes="ccccccsscccssccscccc" /><path
       id="path4364"
       style="fill:#1a1a1a;stroke:none;stroke-width:0.0758093;stroke-linejoin:round;stroke-miterlimit:4.95833;stroke-dasharray:none;stroke-dashoffset:2.55118;stroke-opacity:1;paint-order:markers fill stroke"
       d="m 493.56068,243.58325 c -2.12828,0 -3.96309,0.027 -4.07804,0.059 -0.1146,0.034 -0.35541,0.1807 -0.53391,0.3299 -0.255,0.2131 -0.42233,0.2833 -0.77832,0.3245 -0.97103,0.1128 -1.52528,0.2789 -1.82525,0.5497 -0.25934,0.2344 -0.37355,0.2742 -1.14635,0.3891 -0.94868,0.1408 -1.36518,0.2975 -1.48506,0.5602 -0.0581,0.1272 -0.19884,0.2016 -0.52521,0.2738 -0.71678,0.1594 -1.01923,0.309 -1.18482,0.5899 -0.11616,0.1958 -0.22653,0.2722 -0.45728,0.314 -0.45832,0.084 -1.10195,0.4236 -1.197,0.6318 -0.0609,0.1337 -0.19504,0.211 -0.49198,0.2826 -0.3364,0.081 -0.50606,0.1908 -0.94767,0.6212 -0.39664,0.3865 -0.55031,0.5967 -0.58966,0.8044 -0.0639,0.34 -0.10016,0.3953 -0.36991,0.5671 -0.21914,0.1395 -0.47979,0.7188 -0.58109,1.2895 -0.0306,0.1703 -0.15371,0.4158 -0.27399,0.5462 -0.41072,0.4447 -0.39403,0.5195 0.2425,1.1063 0.0944,0.087 0.25427,0.288 0.35599,0.4467 0.24484,0.3825 0.66091,0.5133 1.95266,0.616 0.88442,0.07 1.04434,0.1046 1.26856,0.2759 0.31971,0.2441 1.01022,0.4066 2.18283,0.5147 1.77286,0.1634 2.09939,0.2229 2.40112,0.4275 0.34364,0.2333 0.77264,0.3323 2.13581,0.4904 1.3131,0.1527 1.32181,0.1534 1.47809,0.4257 0.10458,0.1817 0.24236,0.2617 0.67006,0.3857 0.29636,0.086 0.67295,0.179 0.83577,0.206 0.16266,0.027 0.29649,0.094 0.29649,0.1499 0,0.2613 0.57586,0.5726 1.23199,0.6665 l 0.38733,0.056 0.0204,7.2015 c 0.0175,6.5527 0.014,7.2113 -0.10601,7.3044 -0.55567,0.4449 -0.58442,0.4963 -0.59342,1.1028 -0.0176,1.06 0.0232,1.7616 0.10601,1.9212 0.0449,0.087 0.19287,0.2647 0.32785,0.3961 0.13493,0.1311 0.28097,0.3019 0.32449,0.3787 0.0436,0.077 0.2206,0.1897 0.39444,0.2512 0.1739,0.06 0.42291,0.094 0.5531,0.07 1.26693,-0.2323 1.45706,-0.5516 1.45706,-2.4395 0,-1.1476 -0.0176,-1.2966 -0.17633,-1.6193 l -0.17619,-0.3542 -0.0204,-6.9887 c -0.0141,-3.8437 0.0141,-7.036 0.0479,-7.0931 0.0363,-0.057 0.29316,-0.1804 0.57063,-0.2759 0.36979,-0.1269 0.54698,-0.2381 0.66296,-0.4153 0.13634,-0.208 0.24654,-0.2617 0.79064,-0.3839 0.73346,-0.1644 0.99571,-0.2827 1.20569,-0.5497 0.18099,-0.2303 0.54249,-0.3323 1.4414,-0.403 0.93781,-0.074 1.61206,-0.2283 2.21085,-0.5044 0.45061,-0.208 0.6802,-0.2522 1.88287,-0.3629 1.6923,-0.156 2.03204,-0.2266 2.50036,-0.5235 0.34149,-0.2165 0.45815,-0.2408 1.48842,-0.3195 1.32267,-0.1004 1.57257,-0.1833 1.76603,-0.5898 0.10302,-0.2178 0.2087,-0.3147 0.39604,-0.3629 0.63551,-0.163 0.66482,-1.3544 0.0479,-1.937 -0.19693,-0.1857 -0.31071,-0.395 -0.41172,-0.759 -0.10159,-0.3639 -0.21913,-0.5839 -0.42928,-0.794 -0.15986,-0.1597 -0.39606,-0.496 -0.52347,-0.7485 -0.19882,-0.3938 -0.28459,-0.4832 -0.61069,-0.623 -0.20913,-0.09 -0.51215,-0.1861 -0.67354,-0.2165 -0.18546,-0.034 -0.3107,-0.1091 -0.3403,-0.2025 -0.0784,-0.2449 -0.40839,-0.4479 -1.03316,-0.6334 -0.48037,-0.1425 -0.61548,-0.2181 -0.70837,-0.3979 -0.13932,-0.2692 -0.29299,-0.3567 -0.82706,-0.4711 -0.27152,-0.058 -0.50766,-0.1773 -0.70154,-0.3525 -0.37761,-0.3412 -0.53116,-0.3945 -1.55299,-0.5462 -0.69443,-0.1034 -0.88136,-0.1597 -1.02256,-0.3124 -0.31811,-0.343 -0.7545,-0.4832 -1.99272,-0.6386 -0.25759,-0.034 -0.49995,-0.1219 -0.63173,-0.232 -0.59676,-0.4975 -0.3943,-0.4763 -4.63633,-0.4763 z m 4.42342,1.2389 c 0.074,0 0.16197,0.011 0.27211,0.02 0.51259,0.05 0.94928,0.1756 0.94928,0.2705 0,0.027 -0.0306,0.096 -0.0653,0.1519 -0.13055,0.2046 -1.18148,0.1662 -1.58608,-0.057 l -0.19186,-0.1063 0.19012,-0.1536 c 0.12195,-0.099 0.21042,-0.1337 0.43277,-0.1256 z m -9.20647,0.02 c 0.17494,-0.01 0.30504,0.02 0.45539,0.085 l 0.30027,0.1272 -0.27559,0.1432 c -0.26979,0.1391 -1.19744,0.2543 -1.3279,0.1658 -0.0363,-0.024 -0.09,-0.1045 -0.11758,-0.1796 -0.0392,-0.1069 0.0141,-0.153 0.2425,-0.211 0.32726,-0.082 0.54757,-0.1245 0.72244,-0.1311 z m 11.16437,0.8166 c 0.1581,0.011 0.3576,0.027 0.60894,0.054 1.10805,0.118 1.34009,0.1729 1.34009,0.3178 0,0.055 0.0683,0.1833 0.14986,0.2843 0.12195,0.1513 0.25093,0.1928 0.7294,0.2337 0.32014,0.027 0.72491,0.1106 0.89863,0.185 0.29142,0.1249 0.30288,0.1423 0.15863,0.2232 -0.0856,0.048 -0.33525,0.082 -0.55322,0.082 -0.21812,0 -4.50051,-0.012 -9.51693,-0.024 v 7e-4 c -5.01641,-0.011 -9.40517,0.01 -9.75259,0.037 -0.4895,0.044 -0.66583,0.03 -0.78165,-0.056 -0.14512,-0.1079 -0.14371,-0.114 0.0377,-0.2407 0.11902,-0.084 0.34439,-0.1323 0.62288,-0.1329 0.52231,-1e-4 0.94942,-0.1911 1.09063,-0.4886 0.055,-0.1168 0.16318,-0.2323 0.24076,-0.2566 0.34757,-0.1107 1.95079,-0.2613 2.11492,-0.1989 0.10159,0.039 0.2438,0.2198 0.3332,0.4223 0.13056,0.2941 0.20869,0.3683 0.46064,0.438 0.4123,0.1124 10.29567,0.1143 10.70723,0 0.28895,-0.08 0.53218,-0.3802 0.53218,-0.6544 0,-0.1905 0.10302,-0.2526 0.57759,-0.2269 z m 4.61878,1.731 c -0.0276,0.011 -0.0537,0.02 -0.0755,0.037 0.0203,-0.012 0.0479,-0.027 0.0755,-0.037 z m -0.12914,0.087 c -0.0141,0.01 -0.0141,0.012 -0.0203,0.024 0.0141,-0.011 0.0141,-0.012 0.0203,-0.024 z m -10.59361,0.129 c 4.6909,0.01 9.3294,0.043 9.42447,0.096 0.12476,0.07 0.12337,0.087 -0.0333,0.2286 -0.16511,0.1493 -0.38923,0.1533 -9.49966,0.1674 -9.35611,0.012 -9.55943,0.011 -9.94271,-0.2529 -0.12038,-0.083 -0.0784,-0.1057 0.3158,-0.1746 0.30172,-0.053 5.04413,-0.072 9.73517,-0.065 z m -12.65265,0.2286 c -0.17127,0.1678 -0.34279,0.2732 -0.61431,0.3699 0.22232,-0.096 0.43638,-0.2253 0.61431,-0.3699 z m 24.64933,0 c 0.23234,0.1421 0.54567,0.3113 0.79035,0.4222 -0.19375,-0.053 -0.49198,-0.2019 -0.67512,-0.342 -0.0377,-0.03 -0.0769,-0.053 -0.1146,-0.08 z m -23.40865,0.3559 c -0.30158,0.3538 -0.35425,0.469 -0.35425,0.7574 0,0.2377 0.0363,0.3534 0.12335,0.3874 0.0667,0.027 4.90975,0.046 10.78735,0.047 -5.82375,0.018 -10.64105,0.012 -10.73496,-0.017 -0.15108,-0.049 -0.17806,-0.1128 -0.17806,-0.4258 0,-0.3282 0.0392,-0.4105 0.35614,-0.7486 z m 22.38262,0.255 c 0.0276,0.024 0.0567,0.056 0.0813,0.07 0.1146,0.06 0.1574,0.1813 0.14512,0.3177 -0.0141,-0.1086 -0.087,-0.2279 -0.22683,-0.3874 z m -25.18689,0.2512 c -0.0141,0.018 -0.0232,0.031 -0.0347,0.049 -0.10744,0.1713 -0.29402,0.3392 -0.42754,0.3857 -0.0204,0.01 -0.0333,0.017 -0.0508,0.024 0.106,-0.093 0.21915,-0.1935 0.37689,-0.342 0.0466,-0.043 0.0915,-0.079 0.13635,-0.1169 z m 13.81496,0.911 13.44839,7e-4 0.22319,0.1537 -0.23742,-0.1414 h -13.13084 c -7.22191,7e-4 -13.32154,0.024 -13.55476,0.053 -0.42116,0.051 -0.42564,0.054 -0.77308,0.5915 -0.0141,0.012 -0.0176,0.02 -0.0232,0.034 0.12196,-0.2269 0.29097,-0.4636 0.39605,-0.541 0.19969,-0.1502 0.54842,-0.1505 13.65256,-0.1498 z m 14.67338,0.1238 c 0.0176,0.049 0.0377,0.098 0.0537,0.1483 0.0203,0.073 0.11615,0.1574 0.21101,0.1989 -0.17196,-0.02 -0.2155,-0.075 -0.25295,-0.307 0,-0.012 -0.0141,-0.027 -0.0141,-0.04 z m -29.48288,0.3473 c -0.10302,0.3797 -0.18039,0.5244 -0.3174,0.5864 -0.0276,0.012 -0.0493,0.036 -0.0754,0.052 0.0141,-0.01 0.0141,-0.012 0.0175,-0.02 0.17075,-0.151 0.27588,-0.3276 0.3769,-0.6195 z m 28.99599,0.011 c 0.0972,0.051 0.17529,0.084 0.21102,0.084 0.0784,0 0.15091,0.1158 0.21274,0.3002 -0.0449,-0.093 -0.21711,-0.2388 -0.4239,-0.3839 z m -14.27545,0.1537 c 6.70292,-0.01 13.42327,0.01 13.54445,0.054 0.074,0.027 0.18765,0.1636 0.2528,0.3019 0.0653,0.1385 0.22466,0.314 0.35426,0.3909 0.22887,0.1355 0.28634,0.3032 0.18837,0.5584 -0.0436,0.1128 -1.34284,0.1259 -13.91786,0.1254 -13.73542,-2e-4 -13.87388,0 -14.13074,-0.159 l -0.25833,-0.1588 0.16214,-0.1728 c 0.09,-0.096 0.18329,-0.3093 0.2094,-0.4729 0.0276,-0.1637 0.0944,-0.3357 0.14985,-0.3821 0.0567,-0.047 6.74198,-0.078 13.44489,-0.085 z m 14.70821,0.2566 c 0.0306,0.096 0.0523,0.2195 0.0754,0.3455 0.0421,0.2394 0.0755,0.5092 0.0755,0.8027 0,0.059 -7.2e-4,0.095 -7.2e-4,0.1448 0,-0.099 -0.0141,-0.2094 -0.0176,-0.356 -0.0141,-0.2063 -0.0333,-0.4174 -0.0581,-0.5915 -0.0231,-0.1636 -0.0508,-0.2823 -0.0754,-0.3455 z m -29.17915,0.3438 c -0.0565,0.034 -0.11902,0.085 -0.1674,0.1588 -0.0347,0.05 -0.0552,0.097 -0.0696,0.1483 0.0276,-0.1776 0.10303,-0.2692 0.23743,-0.307 z m 30.02902,0.075 c 0.0175,0.05 0.0276,0.082 0.0449,0.1395 0.11461,0.3775 0.29953,0.7949 0.41186,0.9283 l 0.11461,0.1362 -0.1189,-0.1239 c -0.14372,-0.1495 -0.27591,-0.4468 -0.39954,-0.8969 -0.0204,-0.076 -0.0349,-0.118 -0.0537,-0.183 z m -31.12326,0.6945 c -0.0141,0.027 -0.0141,0.047 -0.0175,0.075 0,-0.027 0.0141,-0.05 0.0175,-0.075 z m 0.86727,0.058 c 0.0141,0.064 0.0141,0.1165 0.0232,0.1972 0.0523,0.368 0.13634,0.7039 0.18678,0.745 0.0377,0.03 0.26166,0.034 0.55655,0.024 -0.0914,0.011 -0.21303,0.017 -0.2721,0.03 -0.30999,0.063 -0.375,-0.04 -0.46949,-0.7294 -0.0141,-0.1061 -0.0175,-0.178 -0.0261,-0.2651 z m 29.53529,0.4676 c -0.0203,0.1625 -0.0609,0.2496 -0.14512,0.3333 -0.0391,0.039 -0.0725,0.068 -0.1146,0.091 l 0.14372,-0.1763 c 0.0624,-0.077 0.0972,-0.1461 0.11759,-0.2478 z m 1.37853,0.087 h 0.0141 l -0.28444,0.1187 c -0.13791,0.058 -0.39909,0.2438 -0.61925,0.4309 0.15143,-0.1621 0.37239,-0.3265 0.55133,-0.4031 z m -1.72234,0.3578 c -0.13634,0.037 -0.37006,0.035 -0.94215,0.01 z m -29.64514,0.1607 c 0.0141,0 0.0204,0.012 0.0306,0.018 0.0333,0.012 0.0653,0.02 0.0957,0.02 0.11615,0 0.22364,0.069 0.28096,0.1779 0.0141,0.017 0.0204,0.03 0.0261,0.045 -0.11173,-0.1221 -0.25411,-0.2218 -0.32101,-0.2218 -0.0276,0 -0.0537,-0.011 -0.0843,-0.02 -0.0141,0 -0.0204,-0.011 -0.0306,-0.018 z m 6.74428,0.08 0.0929,0.065 c 0.1553,0.1086 0.46514,0.2775 0.731,0.4049 -0.25963,-0.1046 -0.57077,-0.2691 -0.72403,-0.3909 z m 16.86159,0.1691 c -0.0306,0.024 -0.0667,0.049 -0.0944,0.072 -0.12196,0.1011 -0.36745,0.2239 -0.5461,0.2722 -0.0141,0 -0.0176,0.01 -0.0232,0.011 0.23423,-0.1045 0.50576,-0.2448 0.66482,-0.3526 z m 4.58047,0.5044 c -1.16812,0.1051 -1.91261,0.2407 -2.31911,0.417 0.26413,-0.1716 1.11892,-0.3228 2.31911,-0.417 z m -25.60208,0.012 c 1.2729,0.1071 1.76487,0.2002 2.17949,0.4205 0.0141,0.01 0.0363,0.012 0.0508,0.02 -0.61968,-0.2428 -1.09991,-0.3373 -2.23,-0.4414 z m 5.94681,0.459 c 3e-4,0 7.4e-4,0.01 7.4e-4,0.011 0,0.011 -0.0276,0.036 -0.0479,0.058 0.0204,-0.027 0.0449,-0.053 0.0449,-0.066 z m 15.74659,0.3295 c -0.25558,0.027 -0.50925,0.043 -0.75219,0.045 0.0944,0 0.16617,-0.01 0.28272,-0.011 0.1702,-0.01 0.31781,-0.024 0.46947,-0.035 z m -14.76756,0.4188 c -0.035,0.024 -0.0639,0.051 -0.0886,0.075 0.0141,-0.027 0.0436,-0.053 0.0886,-0.075 z m 10.61638,0.4921 c -0.0929,0.02 -0.14793,0.039 -0.25498,0.063 -0.36703,0.082 -0.6998,0.2114 -0.92996,0.3541 0.27138,-0.1867 0.5982,-0.3025 1.1848,-0.417 z m -5.33962,0.017 h 0.44149 c 0.76712,7e-4 1.20627,0.055 1.47446,0.2093 -0.24657,-0.13 -0.65031,-0.1732 -1.42222,-0.1955 z m -3.87557,0.089 c 0.37731,0.089 0.60908,0.1871 0.82358,0.3508 0.0551,0.043 0.0929,0.067 0.13932,0.1011 -0.0306,-0.02 -0.0581,-0.034 -0.09,-0.054 -0.26442,-0.1709 -0.64927,-0.3454 -0.8725,-0.3979 z m 2.97856,0.2215 c -0.17442,0.2168 -0.25993,0.4689 -0.20929,0.5986 -0.0683,-0.1435 0.0203,-0.3989 0.20929,-0.5986 z m 1.29133,0.1763 c 0.0436,-8e-4 0.0944,0.012 0.16039,0.045 v 0 c 0.16915,0.081 0.16353,0.084 -0.0929,0.093 -0.20797,0 -0.2502,-0.018 -0.17966,-0.087 0.0333,-0.036 0.0683,-0.053 0.11174,-0.054 z m 2.33129,0.4345 c 0.0141,4e-4 0.0141,7e-4 0.0175,7e-4 -0.0141,-4e-4 -0.0141,-7e-4 -0.0175,-7e-4 z m -4.46537,0.03 c 0.56686,0.083 0.61477,0.1033 0.61766,0.286 -0.0141,-0.024 -0.0204,-0.04 -0.0276,-0.065 -0.0232,-0.08 -0.22218,-0.1469 -0.59153,-0.2215 z m 0.68572,0.024 c 0.0392,0.02 0.68267,0.064 1.43791,0.094 0.0204,7e-4 0.0306,0 0.0509,0 -0.0176,-5e-4 -0.0204,-8e-4 -0.0363,-8e-4 -0.75058,-0.02 -1.39944,-0.06 -1.4414,-0.085 -0.0141,0 -0.0141,-0.01 -0.0141,-0.011 z m 0.48168,0.8044 c 0.23264,0.1272 0.45815,0.288 0.51823,0.3803 0.0885,0.1341 0.10458,1.5171 0.10159,5.193 -7.1e-4,-2.4802 -0.0141,-4.6789 -0.0493,-4.905 -0.0493,-0.3279 -0.087,-0.3741 -0.52157,-0.6369 -0.0204,-0.012 -0.0306,-0.02 -0.0493,-0.03 z m 2.01376,0.063 c -0.25978,0.1651 -0.49706,0.3444 -0.53929,0.4171 -0.0624,0.1045 -0.087,2.2281 -0.087,7.2711 v 6.2488 c -0.0276,-0.5847 -0.0392,-3.6426 -0.0276,-7.0619 0.0203,-5.3165 0.0449,-6.4253 0.13634,-6.5349 0.0509,-0.061 0.27283,-0.2036 0.51664,-0.3402 z m -1.39437,7.0357 c -7.3e-4,0.3955 7.2e-4,0.3957 0,0.8428 0,1.3734 -0.0141,1.8088 -0.0176,2.7431 0.0141,-1.1046 0.0141,-2.3461 0.0176,-3.5859 z m -0.0203,3.9627 c -0.0176,2.8391 -0.0466,4.3569 -0.10875,4.5125 0,0.01 0,0.012 -0.0141,0.024 0.0141,-0.2856 0.0333,-0.8581 0.0667,-1.7031 0.0203,-0.517 0.0377,-1.5637 0.0509,-2.8321 z m 0.83939,3.8669 0.32291,0.3279 0.37516,0.3804 v 0.024 l -0.34903,-0.3576 -0.34728,-0.3596 z m -0.52869,1.5617 0.23033,0.1503 -0.0609,0.054 0.0306,-0.03 z m 0.64219,1.5844 c -0.0421,0.024 -0.074,0.046 -0.11759,0.068 l -0.24236,0.1239 c 0.0204,-0.012 0.0204,-0.012 0.0436,-0.027 0.11461,-0.077 0.22771,-0.1316 0.3158,-0.1641 z m -0.79746,0.047 7.1e-4,8e-4 c 0.071,0.1586 0.12916,0.2681 0.15038,0.288 l -0.0175,0.011 z" /></g></svg>
