<?xml version="1.0" encoding="UTF-8" standalone="no"?>
<!-- Created with Inkscape (http://www.inkscape.org/) -->

<svg
   width="1.7074213in"
   height="1.9516219in"
   viewBox="0 0 43.368501 49.571196"
   version="1.1"
   id="svg5"
   inkscape:version="1.2.2 (732a01da63, 2022-12-09)"
   sodipodi:docname="WildSpace.svg"
   xml:space="preserve"
   inkscape:export-filename="WildSpacePrintOne.png"
   inkscape:export-xdpi="300"
   inkscape:export-ydpi="300"
   xmlns:inkscape="http://www.inkscape.org/namespaces/inkscape"
   xmlns:sodipodi="http://sodipodi.sourceforge.net/DTD/sodipodi-0.dtd"
   xmlns="http://www.w3.org/2000/svg"
   xmlns:svg="http://www.w3.org/2000/svg"><sodipodi:namedview
     id="namedview7"
     pagecolor="#ffffff"
     bordercolor="#111111"
     borderopacity="1"
     inkscape:pageshadow="0"
     inkscape:pageopacity="0"
     inkscape:pagecheckerboard="1"
     inkscape:document-units="mm"
     showgrid="false"
     showguides="true"
     inkscape:zoom="0.41973038"
     inkscape:cx="158.43504"
     inkscape:cy="1654.6336"
     inkscape:window-width="2560"
     inkscape:window-height="1351"
     inkscape:window-x="-9"
     inkscape:window-y="-9"
     inkscape:window-maximized="1"
     inkscape:current-layer="layer1"
     inkscape:showpageshadow="2"
     inkscape:deskcolor="#d1d1d1"
     inkscape:lockguides="false"
     inkscape:guide-bbox="true" /><defs
     id="defs2" /><g
     inkscape:label="Layer 1"
     inkscape:groupmode="layer"
     id="layer1"
     transform="translate(-472.09744,-179.34386)"><path
       id="path6519"
       style="fill:#1a1a1a;stroke:#000000;stroke-width:0.325394;stroke-linejoin:round;stroke-miterlimit:4.95833;stroke-dashoffset:2.55118;paint-order:markers fill stroke"
       d="m 477.25395,179.50655 c -2.42433,0 -4.49745,1.7444 -4.91542,4.1325 h -0.0784 v 39.9477 h 0.0141 c 0,0.057 -0.0141,0.1147 -0.0141,0.1721 0,2.7578 2.23566,4.9935 4.99349,4.9935 2.75783,0 4.99349,-2.2357 4.99349,-4.9935 -1.4e-4,-0.057 0,-0.1147 0,-0.1721 h 23.08328 c 0,0.057 -0.0141,0.1147 -0.0141,0.1721 0,2.7578 2.23567,4.9935 4.99348,4.9935 2.75782,0 4.99348,-2.2357 4.99348,-4.9935 -1.3e-4,-0.6233 -0.11759,-1.2411 -0.34438,-1.8214 v -35.6154 c 0.22756,-0.5806 0.34425,-1.1986 0.34438,-1.8221 0,-2.7578 -2.23566,-4.9934 -4.99348,-4.9934 -2.42448,0 -4.49744,1.7444 -4.91555,4.1325 h -23.22576 c -0.41824,-2.3894 -2.49311,-4.1326 -4.91875,-4.1325 z"
       sodipodi:nodetypes="ccccccsscccssccscccc" /><path
       id="path6525"
       style="fill:#ececec;stroke:none;stroke-width:0.0758093;stroke-linejoin:round;stroke-miterlimit:4.95833;stroke-dasharray:none;stroke-dashoffset:2.55118;stroke-opacity:1;paint-order:markers fill stroke"
       d="m 493.56101,189.04575 c -2.12827,0 -3.96309,0.027 -4.07803,0.059 -0.1146,0.034 -0.35542,0.1807 -0.53392,0.3299 -0.25498,0.2131 -0.42231,0.2833 -0.77831,0.3245 -0.97103,0.1128 -1.52528,0.2789 -1.82525,0.5498 -0.25933,0.2343 -0.37354,0.2741 -1.14634,0.3891 -0.94871,0.1407 -1.3652,0.2974 -1.48509,0.5601 -0.058,0.1273 -0.1988,0.2016 -0.5252,0.2739 -0.71678,0.1593 -1.01922,0.3089 -1.1848,0.5898 -0.11615,0.1959 -0.22655,0.2722 -0.45729,0.3141 -0.45832,0.084 -1.10195,0.4235 -1.197,0.6317 -0.0609,0.1337 -0.19506,0.211 -0.49199,0.2826 -0.3364,0.081 -0.50605,0.1908 -0.94767,0.6212 -0.39661,0.3865 -0.55031,0.5967 -0.58963,0.8044 -0.0639,0.34 -0.10016,0.3953 -0.36994,0.5671 -0.21914,0.1395 -0.47979,0.7188 -0.58109,1.2896 -0.0306,0.1702 -0.15371,0.4158 -0.27398,0.5461 -0.4107,0.4448 -0.39403,0.5195 0.2425,1.1063 0.0944,0.087 0.25426,0.2881 0.35599,0.4467 0.24482,0.3825 0.66091,0.5133 1.95267,0.6161 0.8844,0.07 1.04433,0.1045 1.26854,0.2758 0.31971,0.2442 1.01022,0.4066 2.18285,0.5148 1.77284,0.1633 2.09938,0.2228 2.4011,0.4274 0.34366,0.2334 0.77265,0.3323 2.13582,0.4904 1.3131,0.1527 1.3218,0.1534 1.47811,0.4258 0.10457,0.1816 0.24236,0.2617 0.67004,0.3856 0.29635,0.086 0.67295,0.179 0.83579,0.206 0.16266,0.027 0.29648,0.094 0.29648,0.1499 0,0.2614 0.57585,0.5727 1.23198,0.6666 l 0.38733,0.056 0.0203,7.2015 c 0.0176,6.5527 0.0141,7.2113 -0.10601,7.3043 -0.55568,0.4449 -0.58442,0.4963 -0.5934,1.1028 -0.0175,1.06 0.0232,1.7617 0.106,1.9212 0.0449,0.087 0.19287,0.2648 0.32783,0.3962 0.13495,0.1311 0.28098,0.3019 0.3245,0.3786 0.0436,0.077 0.22059,0.1898 0.39447,0.2512 0.17389,0.06 0.42288,0.094 0.55307,0.07 1.26693,-0.2323 1.45706,-0.5516 1.45706,-2.4395 0,-1.1476 -0.0175,-1.2966 -0.17633,-1.6193 l -0.17617,-0.3542 -0.0203,-6.9886 c -0.0141,-3.8438 0.0141,-7.0361 0.0479,-7.0932 0.0363,-0.057 0.29314,-0.1804 0.57063,-0.2759 0.36977,-0.1269 0.54699,-0.2381 0.66294,-0.4153 0.13634,-0.208 0.24657,-0.2617 0.79063,-0.3839 0.73347,-0.1644 0.99572,-0.2826 1.20572,-0.5497 0.18097,-0.2303 0.54247,-0.3323 1.44138,-0.403 0.93781,-0.074 1.61206,-0.2283 2.21085,-0.5044 0.45061,-0.208 0.6802,-0.2522 1.88287,-0.3629 1.69231,-0.1559 2.03205,-0.2265 2.50036,-0.5235 0.34149,-0.2165 0.45817,-0.2408 1.48842,-0.3195 1.32267,-0.1004 1.57257,-0.1833 1.76603,-0.5898 0.10302,-0.2178 0.20868,-0.3147 0.39605,-0.3629 0.63551,-0.163 0.66482,-1.3543 0.0479,-1.9369 -0.19693,-0.1858 -0.3107,-0.3951 -0.41171,-0.7591 -0.10159,-0.3639 -0.21914,-0.5839 -0.42929,-0.7939 -0.15986,-0.1597 -0.39604,-0.4961 -0.52346,-0.7486 -0.19884,-0.3938 -0.2846,-0.4832 -0.6107,-0.623 -0.20912,-0.089 -0.51215,-0.186 -0.67353,-0.2164 -0.18545,-0.034 -0.3107,-0.1091 -0.34031,-0.2026 -0.0784,-0.2448 -0.40839,-0.4479 -1.03315,-0.6334 -0.48036,-0.1425 -0.61547,-0.2181 -0.70837,-0.3979 -0.13933,-0.2691 -0.293,-0.3566 -0.82707,-0.4711 -0.27152,-0.058 -0.50763,-0.1773 -0.70154,-0.3525 -0.37761,-0.3412 -0.53115,-0.3945 -1.55299,-0.5462 -0.69442,-0.1034 -0.88134,-0.1597 -1.02255,-0.3123 -0.31812,-0.3431 -0.75452,-0.4833 -1.99272,-0.6387 -0.2576,-0.034 -0.49997,-0.1217 -0.63173,-0.2319 -0.59676,-0.4976 -0.39432,-0.4764 -4.63634,-0.4764 z m 4.42343,1.2389 c 0.074,0 0.16196,0.011 0.27212,0.02 0.51259,0.05 0.94927,0.1756 0.94927,0.2705 0,0.027 -0.0306,0.096 -0.0653,0.1519 -0.13055,0.2047 -1.18147,0.1662 -1.58609,-0.057 l -0.19185,-0.1063 0.19011,-0.1537 c 0.12196,-0.099 0.21043,-0.1337 0.43276,-0.1257 z m -9.20648,0.02 c 0.17494,-0.01 0.30505,0.02 0.4554,0.085 l 0.30026,0.1272 -0.27559,0.1432 c -0.26979,0.1392 -1.19744,0.2543 -1.32789,0.1658 -0.0363,-0.024 -0.09,-0.1045 -0.11759,-0.1796 -0.0392,-0.1069 0.0141,-0.153 0.2425,-0.2111 0.32726,-0.082 0.54757,-0.1242 0.72244,-0.131 z m 11.16437,0.8166 c 0.1581,0.011 0.35759,0.027 0.60896,0.054 1.10803,0.1179 1.3401,0.1728 1.3401,0.3177 0,0.055 0.0683,0.1834 0.14985,0.2844 0.12195,0.1512 0.25092,0.1928 0.72939,0.2336 0.32016,0.027 0.72489,0.1107 0.89861,0.1851 0.29143,0.1249 0.30288,0.1423 0.15863,0.2232 -0.0856,0.048 -0.33524,0.082 -0.5532,0.082 -0.21814,0 -4.5005,-0.012 -9.51692,-0.024 v 7e-4 c -5.01643,-0.011 -9.40517,0.01 -9.75261,0.037 -0.48951,0.044 -0.66584,0.03 -0.78165,-0.056 -0.14511,-0.1079 -0.1437,-0.114 0.0377,-0.2407 0.11902,-0.084 0.34439,-0.1323 0.6229,-0.1327 0.52231,-2e-4 0.9494,-0.1911 1.09061,-0.4886 0.0551,-0.1169 0.16319,-0.2323 0.24076,-0.2566 0.34759,-0.1107 1.95079,-0.2614 2.11492,-0.1989 0.10159,0.039 0.24383,0.2198 0.3332,0.4222 0.13055,0.2941 0.20871,0.3683 0.46064,0.438 0.4123,0.1125 10.29567,0.1146 10.70723,0 0.28895,-0.08 0.5322,-0.3802 0.5322,-0.6544 0,-0.1904 0.10302,-0.2526 0.5776,-0.2269 z m 4.61878,1.731 c -0.0276,0.011 -0.0537,0.02 -0.0754,0.037 0.0204,-0.012 0.0479,-0.027 0.0754,-0.037 z m -0.12914,0.087 c -0.0141,0.01 -0.0141,0.012 -0.0204,0.024 0.0141,-0.011 0.0141,-0.012 0.0204,-0.024 z m -10.59361,0.129 c 4.6909,0.01 9.32943,0.043 9.42447,0.096 0.12477,0.07 0.12336,0.088 -0.0333,0.2286 -0.16512,0.1493 -0.38923,0.1533 -9.49965,0.1674 -9.35612,0.012 -9.55943,0.011 -9.9427,-0.2529 -0.12055,-0.083 -0.0784,-0.1057 0.31577,-0.1746 0.30172,-0.053 5.04414,-0.072 9.7352,-0.065 z m -12.65266,0.2286 c -0.17126,0.1678 -0.34278,0.2732 -0.6143,0.3698 0.22232,-0.095 0.43639,-0.2252 0.6143,-0.3698 z m 24.64934,0 c 0.23235,0.1421 0.54568,0.3113 0.79035,0.4222 -0.19373,-0.053 -0.49196,-0.2019 -0.67512,-0.342 -0.0377,-0.03 -0.0769,-0.053 -0.1146,-0.08 z m -23.40865,0.3559 c -0.30156,0.3537 -0.35426,0.469 -0.35426,0.7574 0,0.2377 0.0363,0.3534 0.12336,0.3874 0.0667,0.027 4.90977,0.046 10.78736,0.047 -5.82376,0.018 -10.64107,0.012 -10.73496,-0.017 -0.15109,-0.049 -0.17808,-0.1129 -0.17808,-0.4258 0,-0.3283 0.0392,-0.4105 0.35615,-0.7486 z m 22.38261,0.255 c 0.0276,0.024 0.0567,0.056 0.0813,0.07 0.11461,0.06 0.1574,0.1813 0.14512,0.3177 -0.0141,-0.1086 -0.087,-0.2279 -0.22683,-0.3874 z m -25.18687,0.2521 c -0.0141,0.017 -0.0232,0.031 -0.0347,0.049 -0.10744,0.1713 -0.29402,0.3392 -0.42754,0.3857 -0.0203,0.01 -0.0333,0.018 -0.0509,0.024 0.10601,-0.093 0.21913,-0.1935 0.37687,-0.342 0.0466,-0.043 0.0914,-0.079 0.13634,-0.1169 z m 13.81496,0.9109 13.44838,8e-4 0.2232,0.1537 -0.23742,-0.1415 H 493.7404 c -7.22189,8e-4 -13.32153,0.024 -13.55474,0.052 -0.42117,0.051 -0.42566,0.054 -0.77309,0.5916 -0.0141,0.012 -0.0176,0.02 -0.0232,0.034 0.12195,-0.227 0.29098,-0.4636 0.39605,-0.541 0.19968,-0.1502 0.54842,-0.1506 13.65256,-0.15 z m 14.67337,0.1239 c 0.0176,0.049 0.0377,0.098 0.0537,0.1483 0.0203,0.073 0.11615,0.1574 0.21102,0.1989 -0.17196,-0.02 -0.21551,-0.075 -0.25296,-0.307 0,-0.012 -0.0141,-0.027 -0.0141,-0.04 z m -29.48289,0.3473 c -0.10302,0.3797 -0.18038,0.5244 -0.31737,0.5863 -0.0276,0.012 -0.0493,0.036 -0.0755,0.053 0.0141,-0.01 0.0141,-0.012 0.0176,-0.02 0.17073,-0.1509 0.27586,-0.3275 0.37687,-0.6195 z m 28.99602,0.011 c 0.0972,0.051 0.17529,0.084 0.211,0.084 0.0784,0 0.15091,0.1158 0.21276,0.3002 -0.0449,-0.093 -0.21711,-0.2388 -0.42392,-0.3839 z m -14.27546,0.1537 c 6.70293,-0.01 13.42326,0.01 13.54444,0.054 0.074,0.027 0.18765,0.1633 0.25282,0.3019 0.0653,0.1384 0.22465,0.314 0.35425,0.3908 0.22887,0.1355 0.28632,0.3033 0.18837,0.5584 -0.0436,0.1129 -1.34284,0.126 -13.91785,0.1257 -13.73544,-3e-4 -13.87389,0 -14.13077,-0.159 l -0.25833,-0.1588 0.16214,-0.1728 c 0.09,-0.096 0.1833,-0.3093 0.20943,-0.473 0.0276,-0.1637 0.0944,-0.3356 0.14986,-0.3821 0.0567,-0.047 6.74196,-0.078 13.44489,-0.085 z m 14.70822,0.2566 c 0.0306,0.096 0.0523,0.2195 0.0754,0.3455 0.0421,0.2394 0.0755,0.5093 0.0755,0.8027 0,0.059 -7.3e-4,0.095 -7.3e-4,0.1448 0,-0.099 -0.0141,-0.2094 -0.0175,-0.356 -0.0141,-0.2063 -0.0333,-0.4174 -0.0581,-0.5915 -0.0232,-0.1634 -0.0509,-0.2823 -0.0755,-0.3455 z m -29.17915,0.3438 c -0.0565,0.034 -0.11902,0.085 -0.1674,0.1586 -0.0347,0.05 -0.0552,0.097 -0.0697,0.1483 0.0276,-0.1776 0.10302,-0.2691 0.23743,-0.3069 z m 30.02899,0.075 c 0.0176,0.051 0.0276,0.082 0.0449,0.1395 0.1146,0.3774 0.29955,0.7949 0.41187,0.9283 l 0.1146,0.1362 -0.11902,-0.1239 c -0.1437,-0.1497 -0.27587,-0.4468 -0.39953,-0.8969 -0.0203,-0.076 -0.0349,-0.1181 -0.0537,-0.183 z m -31.12324,0.6945 c -0.0141,0.027 -0.0141,0.046 -0.0176,0.075 0,-0.027 0.0141,-0.05 0.0176,-0.075 z m 0.86728,0.058 c 0.0141,0.064 0.0141,0.1165 0.0232,0.1972 0.0523,0.368 0.13635,0.7039 0.18677,0.7449 0.0377,0.03 0.26166,0.034 0.55656,0.024 -0.0914,0.011 -0.21305,0.018 -0.27212,0.03 -0.30998,0.063 -0.375,-0.04 -0.46947,-0.7293 -0.0141,-0.1062 -0.0175,-0.178 -0.0261,-0.2651 z m 29.53527,0.4676 c -0.0203,0.1625 -0.0609,0.2495 -0.14511,0.3333 -0.0392,0.039 -0.0727,0.068 -0.1146,0.091 l 0.14371,-0.1763 c 0.0624,-0.077 0.0972,-0.1461 0.11759,-0.2478 z m 1.37855,0.087 h 0.0141 l -0.28444,0.1186 c -0.13792,0.058 -0.39911,0.2438 -0.61926,0.431 0.15143,-0.1621 0.37239,-0.3265 0.55133,-0.4031 z m -1.72235,0.3577 c -0.13634,0.036 -0.37007,0.035 -0.94217,0.01 z m -29.64514,0.1607 c 0.0141,0 0.0204,0.012 0.0306,0.018 0.0333,0.012 0.0653,0.02 0.0959,0.02 0.11615,0 0.22363,0.069 0.28097,0.178 0.0141,0.018 0.0203,0.03 0.0261,0.045 -0.11174,-0.1221 -0.25412,-0.2218 -0.32103,-0.2218 -0.0276,0 -0.0537,-0.011 -0.0843,-0.02 -0.014,0 -0.0203,-0.011 -0.0306,-0.017 z m 6.74429,0.08 0.0928,0.065 c 0.1553,0.1087 0.46513,0.2776 0.731,0.4049 -0.25963,-0.1045 -0.57077,-0.2691 -0.72403,-0.3908 z m 16.86159,0.1692 c -0.0306,0.024 -0.0667,0.049 -0.0944,0.072 -0.12196,0.1011 -0.36747,0.2239 -0.54613,0.2722 -0.0141,0 -0.0175,0.01 -0.0232,0.011 0.23423,-0.1044 0.50578,-0.2448 0.66482,-0.3526 z m 4.58045,0.5044 c -1.16811,0.105 -1.9126,0.2407 -2.3191,0.417 0.26412,-0.1716 1.11892,-0.3228 2.3191,-0.417 z m -25.60207,0.012 c 1.27289,0.107 1.76488,0.2002 2.17949,0.4205 0.0141,0.01 0.0363,0.012 0.0509,0.02 -0.6197,-0.2428 -1.09991,-0.3373 -2.23001,-0.4414 z m 5.94682,0.4589 c 2.8e-4,0 7.2e-4,0.01 7.2e-4,0.011 0,0.011 -0.0276,0.036 -0.0479,0.058 0.0203,-0.027 0.0449,-0.053 0.0449,-0.066 z m 15.74657,0.3296 c -0.25555,0.027 -0.50924,0.043 -0.75217,0.045 0.0944,0 0.16616,-0.01 0.2827,-0.011 0.17021,-0.01 0.31783,-0.024 0.46947,-0.035 z m -14.76756,0.4188 c -0.0349,0.024 -0.0639,0.051 -0.0886,0.075 0.0141,-0.027 0.0436,-0.053 0.0886,-0.075 z m 10.6164,0.492 c -0.0929,0.02 -0.14792,0.039 -0.255,0.063 -0.36701,0.082 -0.6998,0.2114 -0.92997,0.3542 0.27139,-0.1867 0.59822,-0.3025 1.18481,-0.417 z m -5.33961,0.018 h 0.44146 c 0.76714,8e-4 1.20628,0.055 1.47449,0.2094 -0.24657,-0.13 -0.65031,-0.1732 -1.42224,-0.1955 z m -3.8756,0.089 c 0.37734,0.089 0.6091,0.1871 0.82359,0.3508 0.0552,0.043 0.0929,0.067 0.13933,0.1011 -0.0306,-0.02 -0.0581,-0.034 -0.09,-0.054 -0.26442,-0.1709 -0.6493,-0.3454 -0.8725,-0.3978 z m 2.97857,0.2216 c -0.17443,0.2167 -0.25991,0.4688 -0.20927,0.5985 -0.0683,-0.1435 0.0203,-0.3989 0.20927,-0.5985 z m 1.29133,0.1762 c 0.0436,-7e-4 0.0944,0.012 0.16038,0.045 v 0 c 0.16914,0.081 0.16353,0.084 -0.0929,0.093 -0.20796,0 -0.25019,-0.018 -0.17966,-0.087 0.0333,-0.036 0.0683,-0.053 0.11174,-0.054 z m 2.33129,0.4345 c 0.0141,4e-4 0.0141,8e-4 0.0176,8e-4 -0.0141,-5e-4 -0.0141,-8e-4 -0.0176,-8e-4 z m -4.46536,0.03 c 0.56686,0.083 0.61474,0.1034 0.61764,0.286 -0.0141,-0.024 -0.0203,-0.04 -0.0276,-0.065 -0.0232,-0.08 -0.22218,-0.1469 -0.59153,-0.2215 z m 0.68571,0.024 c 0.0391,0.02 0.68266,0.064 1.43791,0.094 0.0203,8e-4 0.0306,0 0.0509,0 -0.0175,-4e-4 -0.0203,-7e-4 -0.0363,-7e-4 -0.75059,-0.02 -1.39945,-0.06 -1.44138,-0.085 -0.0141,0 -0.0141,-0.01 -0.0141,-0.011 z m 0.48168,0.8044 c 0.23262,0.1273 0.45816,0.2881 0.51824,0.3804 0.0886,0.134 0.10457,1.517 0.10159,5.193 -7.3e-4,-2.4802 -0.0141,-4.6789 -0.0493,-4.9051 -0.0493,-0.3279 -0.087,-0.374 -0.5216,-0.6369 -0.0203,-0.012 -0.0306,-0.02 -0.0493,-0.03 z m 2.01376,0.063 c -0.25978,0.1652 -0.49706,0.3445 -0.53929,0.4171 -0.0624,0.1046 -0.087,2.2281 -0.087,7.2712 v 6.2488 c -0.0276,-0.5847 -0.0391,-3.6427 -0.0276,-7.0619 0.0204,-5.3166 0.0449,-6.4254 0.13634,-6.5349 0.0508,-0.061 0.27283,-0.2036 0.51663,-0.3403 z m -1.39436,7.0357 c -7.4e-4,0.3955 7.1e-4,0.3957 0,0.8428 0,1.3734 -0.0141,1.8088 -0.0176,2.7432 0.0141,-1.1046 0.0141,-2.3462 0.0176,-3.586 z m -0.0203,3.9628 c -0.0175,2.8391 -0.0464,4.3568 -0.10875,4.5125 0,0.01 0,0.012 -0.0141,0.024 0.0141,-0.2857 0.0333,-0.8582 0.0667,-1.7032 0.0203,-0.517 0.0377,-1.5636 0.0508,-2.832 z m 0.8394,3.8669 0.32291,0.3279 0.37514,0.3804 v 0.024 l -0.34902,-0.3577 -0.34729,-0.3595 z m -0.52869,1.5617 0.23031,0.1502 -0.0609,0.054 0.0306,-0.03 z m 0.64217,1.5844 c -0.0421,0.024 -0.074,0.046 -0.11759,0.068 l -0.24235,0.1239 c 0.0203,-0.012 0.0203,-0.012 0.0436,-0.027 0.1146,-0.077 0.22771,-0.1316 0.3158,-0.1641 z m -0.79746,0.047 7.3e-4,7e-4 c 0.071,0.1587 0.12915,0.2682 0.15039,0.2881 l -0.0175,0.011 z" /></g></svg>
