<?xml version="1.0" encoding="UTF-8" standalone="no"?>
<!-- Created with Inkscape (http://www.inkscape.org/) -->

<svg
   width="1.7068697in"
   height="1.9516219in"
   viewBox="0 0 43.354491 49.571196"
   version="1.1"
   id="svg5"
   inkscape:version="1.2.2 (732a01da63, 2022-12-09)"
   sodipodi:docname="WildSpace.svg"
   xml:space="preserve"
   inkscape:export-filename="WildSpacePrintOne.png"
   inkscape:export-xdpi="300"
   inkscape:export-ydpi="300"
   xmlns:inkscape="http://www.inkscape.org/namespaces/inkscape"
   xmlns:sodipodi="http://sodipodi.sourceforge.net/DTD/sodipodi-0.dtd"
   xmlns="http://www.w3.org/2000/svg"
   xmlns:svg="http://www.w3.org/2000/svg"><sodipodi:namedview
     id="namedview7"
     pagecolor="#ffffff"
     bordercolor="#111111"
     borderopacity="1"
     inkscape:pageshadow="0"
     inkscape:pageopacity="0"
     inkscape:pagecheckerboard="1"
     inkscape:document-units="mm"
     showgrid="false"
     showguides="true"
     inkscape:zoom="0.41973038"
     inkscape:cx="158.43504"
     inkscape:cy="1654.6336"
     inkscape:window-width="2560"
     inkscape:window-height="1351"
     inkscape:window-x="-9"
     inkscape:window-y="-9"
     inkscape:window-maximized="1"
     inkscape:current-layer="layer1"
     inkscape:showpageshadow="2"
     inkscape:deskcolor="#d1d1d1"
     inkscape:lockguides="false"
     inkscape:guide-bbox="true" /><defs
     id="defs2" /><g
     inkscape:label="Layer 1"
     inkscape:groupmode="layer"
     id="layer1"
     transform="translate(-616.04016,-235.43185)"><path
       id="path6197"
       style="fill:#ececec;stroke:#000000;stroke-width:0.325394;stroke-linejoin:round;stroke-miterlimit:4.95833;stroke-dashoffset:2.55118;paint-order:markers fill stroke"
       d="m 621.19628,235.59455 c -2.4244,0 -4.4974,1.7444 -4.9154,4.1325 h -0.078 v 39.9477 h 0.014 c -0.014,0.057 -0.014,0.1147 -0.014,0.1721 0,2.7578 2.2356,4.9935 4.9935,4.9935 2.75774,0 4.99344,-2.2357 4.99344,-4.9935 -2e-4,-0.057 0,-0.1147 -0.014,-0.1721 h 23.0834 c -0.014,0.057 -0.014,0.1147 -0.014,0.1721 0,2.7578 2.2356,4.9935 4.9933,4.9935 2.758,0 4.9935,-2.2357 4.9935,-4.9935 0,-0.6233 -0.1176,-1.2411 -0.3444,-1.8214 v -35.6154 c 0.2277,-0.5805 0.3444,-1.1985 0.3444,-1.8221 0,-2.7578 -2.2355,-4.9934 -4.9935,-4.9934 -2.4243,0 -4.4973,1.7444 -4.9153,4.1325 h -23.2259 c -0.4183,-2.3894 -2.4931,-4.1326 -4.91894,-4.1325 z"
       sodipodi:nodetypes="ccccccsscccssccscccc" /><path
       style="fill:#1a1a1a;stroke:none;stroke-width:0.23377;stroke-linejoin:round;stroke-miterlimit:4.95833;stroke-dasharray:none;stroke-dashoffset:2.55118;stroke-opacity:1;paint-order:markers fill stroke"
       d="m 624.05742,276.56235 c -0.268,-0.1194 -0.8706,-0.6175 -1.3394,-1.1072 -0.77514,-0.8095 -0.85234,-1.0189 -0.85234,-2.3121 0,-1.0006 0.1233,-1.5585 0.41694,-1.8827 0.2679,-0.296 0.364,-0.6633 0.2686,-1.0275 -0.1277,-0.4873 0.4585,-1.1617 4.176,-4.8081 3.4368,-3.3709 4.4223,-4.2103 4.8017,-4.0899 0.503,0.1597 1.4165,-0.4726 1.4165,-0.9804 0,-0.155 -0.3287,-0.5969 -0.7305,-0.9818 -0.4017,-0.385 -0.7306,-0.8735 -0.7306,-1.0859 0,-0.2122 0.9063,-1.2876 2.0141,-2.3895 2.14,-2.1288 3.0504,-2.5189 3.5779,-1.5331 0.1379,0.2588 0.4846,0.5444 0.769,0.6347 0.4228,0.1341 0.9143,-0.2302 2.688,-1.9925 1.816,-1.8042 2.1473,-2.2506 2.0283,-2.7319 -0.2033,-0.8218 2.5182,-3.5739 3.3254,-3.3628 0.3942,0.103 0.7898,-0.085 1.4702,-0.6999 0.512,-0.4626 1.0675,-0.8356 1.2345,-0.829 0.1671,0.01 1.6733,0.4796 3.3474,1.0512 2.243,0.7659 3.0661,1.1554 3.1286,1.4806 0.055,0.2892 -0.5503,1.0807 -1.7588,2.297 -1.4144,1.4234 -1.8133,1.9723 -1.7126,2.3561 0.1982,0.7549 -2.6908,3.6034 -3.4591,3.4106 -0.7702,-0.1933 -0.9437,0.2429 -0.35,0.8803 0.2747,0.2948 0.4995,0.6565 0.4995,0.8037 0,0.3361 -2.2419,2.5626 -2.5804,2.5626 -0.1379,0 -0.5011,-0.2339 -0.8079,-0.5198 l -0.5581,-0.5198 -3.6358,3.6246 c -2.9664,2.9571 -3.6119,3.7224 -3.5056,4.1555 0.188,0.7647 -8.2174,9.1905 -8.9714,8.9933 -0.2824,-0.074 -0.6877,0.04 -0.9322,0.2609 -0.4971,0.4501 -2.5174,0.6639 -3.2379,0.3428 z m 2.449,-1.3416 c 0.4492,-0.3286 0.3914,-0.4262 -1.1909,-2.0085 -1.5825,-1.5824 -1.68,-1.6404 -2.0086,-1.191 -0.5998,0.8201 -0.4238,1.8106 0.4825,2.7169 0.9064,0.9063 1.8968,1.0823 2.717,0.4826 z m 5.5805,-4.1575 c 1.9454,-1.9409 3.5371,-3.6394 3.5371,-3.7745 0,-0.6715 -0.9079,0.048 -4.1128,3.2585 -2.0286,2.0322 -3.4278,3.6177 -3.3308,3.7745 0.091,0.1486 0.2126,0.2703 0.2682,0.2703 0.055,0 1.693,-1.588 3.6383,-3.5288 z m -1.2423,-1.5539 c 2.4187,-2.4227 3.5173,-3.6825 3.3184,-3.8054 -0.1922,-0.1188 -1.5336,1.0506 -3.8012,3.3141 -3.1212,3.1156 -3.9258,4.1129 -3.3185,4.1129 0.1016,0 1.8128,-1.6297 3.8013,-3.6216 z m -1.3128,-1.3658 c 2.5513,-2.5559 3.4466,-3.5998 3.2533,-3.7932 -0.1933,-0.1933 -1.2468,0.7105 -3.8277,3.2841 -1.9585,1.953 -3.5608,3.6599 -3.5608,3.7932 0,0.6685 0.9147,-0.058 4.1352,-3.2841 z m -1.5446,-1.1504 c 1.9234,-1.9026 3.4971,-3.6102 3.4971,-3.7947 0,-0.1845 -0.096,-0.299 -0.2126,-0.2543 -0.1176,0.045 -1.8236,1.6396 -3.7929,3.5444 -3.0525,2.9527 -3.851,3.9638 -3.1299,3.9638 0.077,0 1.7148,-1.5566 3.6383,-3.4592 z m 9.0979,-2.4766 c 0,-0.3488 -2.7122,-3.0741 -3.0593,-3.0741 -0.1509,0 -0.4803,0.2276 -0.7321,0.5058 -0.4538,0.5015 -0.4439,0.5192 1.1862,2.1018 1.6003,1.5539 1.6566,1.5846 2.1244,1.1611 0.2645,-0.2392 0.4808,-0.5518 0.4808,-0.6946 z m 2.7472,-2.5332 c 0.7658,-0.774 1.3926,-1.52 1.3926,-1.6577 0,-0.3023 -2.7756,-3.0229 -3.084,-3.0229 -0.119,0 -0.9024,0.6909 -1.7391,1.5352 l -1.5215,1.5352 1.4855,1.5087 c 0.8169,0.8298 1.6178,1.5088 1.7796,1.5088 0.1618,0 0.9209,-0.6332 1.6869,-1.4073 z m -4.1396,-4.1398 c 0.7658,-0.774 1.3924,-1.5166 1.3924,-1.6504 0,-0.1339 -0.2339,-0.4435 -0.5198,-0.6884 -0.5142,-0.4402 -0.5375,-0.4275 -2.1177,1.1525 -1.5752,1.5753 -1.5911,1.6046 -1.1469,2.0957 0.2479,0.2738 0.5741,0.4979 0.7251,0.4979 0.1509,0 0.9008,-0.6333 1.6669,-1.4073 z m 9.0081,-0.7291 2.1265,-2.1364 -1.6758,-1.6629 c -1.0295,-1.0216 -1.74,-1.5586 -1.8426,-1.3926 -0.091,0.1486 0.014,0.4416 0.2137,0.651 0.5038,0.5038 0.4923,1.3201 -0.019,1.3201 -0.2197,0 -0.542,-0.1918 -0.7163,-0.4262 -0.2451,-0.3296 -0.413,-0.3673 -0.741,-0.1663 -0.7758,0.4751 -0.9925,1.0718 -0.5177,1.425 0.2344,0.1744 0.4261,0.4966 0.4261,0.7163 0,0.5201 -0.8197,0.5187 -1.3408,0 -0.3731,-0.3732 -0.4449,-0.3583 -1.0131,0.2098 l -0.6113,0.6114 1.4902,1.4948 c 0.8195,0.8221 1.6259,1.4948 1.792,1.4948 0.1661,0 1.2589,-0.9614 2.4285,-2.1365 z m 1.5611,1.1199 c 0.6168,-0.5794 0.7221,-0.9316 0.2785,-0.9316 -0.4043,0 -1.176,0.7438 -1.176,1.1336 0,0.4637 0.2485,0.4078 0.8975,-0.202 z m 1.6864,-7.7199 -2.3377,-2.3377 -0.9146,0.9171 -0.9143,0.9171 2.3521,2.3207 2.352,2.3206 0.9001,-0.9001 0.9001,-0.9 z m 4.0435,-0.6905 c 0.6408,-0.6311 1.165,-1.2745 1.165,-1.4298 0,-0.1553 -1.0135,-0.6192 -2.2525,-1.0309 l -2.2525,-0.7486 -0.6739,0.6455 -0.6743,0.6454 1.5195,1.533 c 0.8356,0.8432 1.6283,1.5329 1.7615,1.5329 0.1336,0 0.7664,-0.5163 1.4072,-1.1475 z"
       id="path5321" /></g></svg>
