<?xml version="1.0" encoding="UTF-8" standalone="no"?>
<!-- Created with Inkscape (http://www.inkscape.org/) -->

<svg
   width="1.7068794in"
   height="1.9516219in"
   viewBox="0 0 43.354736 49.571196"
   version="1.1"
   id="svg5"
   inkscape:version="1.2.2 (732a01da63, 2022-12-09)"
   sodipodi:docname="WildSpace.svg"
   xml:space="preserve"
   inkscape:export-filename="WildSpacePrintOne.png"
   inkscape:export-xdpi="300"
   inkscape:export-ydpi="300"
   xmlns:inkscape="http://www.inkscape.org/namespaces/inkscape"
   xmlns:sodipodi="http://sodipodi.sourceforge.net/DTD/sodipodi-0.dtd"
   xmlns="http://www.w3.org/2000/svg"
   xmlns:svg="http://www.w3.org/2000/svg"><sodipodi:namedview
     id="namedview7"
     pagecolor="#ffffff"
     bordercolor="#111111"
     borderopacity="1"
     inkscape:pageshadow="0"
     inkscape:pageopacity="0"
     inkscape:pagecheckerboard="1"
     inkscape:document-units="mm"
     showgrid="false"
     showguides="true"
     inkscape:zoom="0.41973038"
     inkscape:cx="158.43504"
     inkscape:cy="1654.6336"
     inkscape:window-width="2560"
     inkscape:window-height="1351"
     inkscape:window-x="-9"
     inkscape:window-y="-9"
     inkscape:window-maximized="1"
     inkscape:current-layer="layer1"
     inkscape:showpageshadow="2"
     inkscape:deskcolor="#d1d1d1"
     inkscape:lockguides="false"
     inkscape:guide-bbox="true" /><defs
     id="defs2" /><g
     inkscape:label="Layer 1"
     inkscape:groupmode="layer"
     id="layer1"
     transform="translate(-568.06415,-176.14426)"><path
       id="path6531"
       style="fill:#1a1a1a;stroke:#000000;stroke-width:0.325394;stroke-linejoin:round;stroke-miterlimit:4.95833;stroke-dashoffset:2.55118;paint-order:markers fill stroke"
       d="m 573.22051,176.30695 c -2.4245,0 -4.4974,1.7444 -4.9156,4.1325 h -0.078 v 39.9477 h 0.014 c -0.014,0.057 -0.014,0.1147 -0.014,0.1721 0,2.7578 2.2357,4.9935 4.9935,4.9935 2.7579,0 4.9935,-2.2357 4.9935,-4.9935 -1e-4,-0.057 0,-0.1147 -0.014,-0.1721 h 23.0833 c -0.014,0.057 -0.014,0.1147 -0.014,0.1721 0,2.7578 2.2357,4.9935 4.9935,4.9935 2.7578,0 4.9935,-2.2357 4.9935,-4.9935 -10e-5,-0.6233 -0.1176,-1.2411 -0.3444,-1.8214 v -35.6154 c 0.2276,-0.5805 0.3444,-1.1985 0.3444,-1.8221 0,-2.7578 -2.2357,-4.9934 -4.9935,-4.9934 -2.4243,0 -4.4973,1.7444 -4.9154,4.1325 h -23.2259 c -0.4181,-2.3894 -2.493,-4.1326 -4.9188,-4.1325 z"
       sodipodi:nodetypes="ccccccsscccssccscccc" /><path
       style="fill:#ececec;stroke:none;stroke-width:0.23377;stroke-linejoin:round;stroke-miterlimit:4.95833;stroke-dasharray:none;stroke-dashoffset:2.55118;stroke-opacity:1;paint-order:markers fill stroke"
       d="m 589.40781,215.19495 c -1.2016,-0.4971 -1.7143,-1.5521 -2.707,-5.5703 -0.4597,-1.8618 -0.6339,-2.0622 -2.0415,-2.3497 -0.5919,-0.1209 -1.3534,-0.6661 -2.4934,-1.7852 l -1.6412,-1.6112 -0.9259,0.9041 c -0.5093,0.4973 -1.034,0.9042 -1.1663,0.9042 -0.3169,0 -3.2701,-2.9851 -3.2701,-3.3055 0,-0.4192 1.7371,-1.9424 3.5309,-3.0963 2.2869,-1.4709 7.8051,-7.0204 7.5755,-7.6185 -0.232,-0.6046 1.2057,-2.0515 2.0386,-2.0515 0.441,0 1.0267,-0.4015 1.9528,-1.3392 0.8964,-0.9077 1.5171,-1.3394 1.9264,-1.3394 0.6662,0 1.9698,1.103 1.9698,1.6668 0,0.1969 -1.2603,1.6338 -2.8004,3.1932 -2.5198,2.5512 -3.1825,3.4194 -2.6096,3.4194 0.4487,0 9.5172,-9.4627 10.1514,-10.5927 0.7809,-1.3914 1.3213,-2.0699 1.6486,-2.0699 0.3563,0 3.3504,2.9627 3.3504,3.3152 0,0.1737 -0.7946,0.7837 -1.7655,1.3556 -1.8132,1.0679 -7.7314,6.5806 -7.7314,7.2015 0,0.1725 0.8765,1.1857 1.948,2.2514 1.0715,1.0657 1.948,2.0725 1.948,2.2373 0,0.1647 -1.4563,1.756 -3.2364,3.5361 -2.9895,2.9895 -3.3054,3.2365 -4.1396,3.2365 -1.0657,0 -1.1028,0.1806 -0.2984,1.4548 1.5195,2.4072 2.5598,4.767 2.5603,5.8084 0,1.9171 -1.8724,3.0314 -3.774,2.2449 z m 2.2647,-1.2774 c 0.6203,-0.6204 0.3012,-1.8531 -1.1605,-4.4816 -0.7992,-1.4369 -1.5648,-2.7243 -1.7015,-2.861 -0.35,-0.35 -1.5347,0.7923 -1.3397,1.2918 0.081,0.2073 0.3126,1.0344 0.5147,1.838 0.8433,3.3543 1.0713,3.9499 1.6125,4.2111 0.7356,0.3552 1.7203,0.3559 2.0745,0 z m -4.2583,-8.1831 c 0.3598,-0.3757 0.6543,-0.7896 0.6543,-0.9198 0,-0.1302 -0.7677,-0.9987 -1.7064,-1.93 l -1.7064,-1.6933 -1.27,1.27 -1.27,1.27 1.0872,1.1078 c 1.6374,1.6685 3.1603,1.9922 4.2113,0.8953 z m 3.9218,-1.413 c 0.5867,-0.2251 0.4631,-0.5079 -0.3453,-0.7897 -0.6336,-0.2209 -0.7305,-0.1971 -0.7305,0.1791 0,0.7103 0.3292,0.8971 1.0758,0.6106 z m -11.0598,-2.5308 c 0.5094,-0.8722 1.1561,-1.7938 1.4371,-2.0482 0.5583,-0.5052 0.68,-1.1175 0.2223,-1.1175 -0.1588,0 -0.5508,0.2466 -0.8709,0.548 -0.3203,0.3013 -1.3039,0.9862 -2.186,1.5219 -2.1981,1.335 -2.3264,1.6002 -1.2912,2.6683 0.7959,0.8211 0.8498,0.8392 1.2965,0.435 0.2563,-0.232 0.8828,-1.1354 1.3922,-2.0075 z m 9.9483,-0.2157 0.8166,-0.8249 -1.4861,-1.486 -1.4859,-1.486 -1.2738,1.2737 -1.2736,1.2737 1.5778,1.5954 1.5778,1.5955 0.3653,-0.5582 c 0.2008,-0.307 0.7327,-0.9294 1.1819,-1.3832 z m 2.601,1.1626 c 0.2291,-0.7215 -0.4439,-1.3939 -0.9635,-0.9627 -0.3304,0.2742 -0.3252,0.3702 0.049,0.8846 0.521,0.717 0.7071,0.7328 0.9149,0.078 z m -10.0636,-1.3616 c 0.9891,-0.9658 1.1325,-1.2899 0.5705,-1.2899 -0.3076,0 -1.1733,0.9637 -1.6953,1.8873 -0.3299,0.5835 0.208,0.2979 1.1248,-0.5974 z m 12.9531,-1.2892 1.1382,-1.2169 -1.7222,-1.7053 c -0.9472,-0.9378 -1.7971,-1.7052 -1.8886,-1.7052 -0.2639,0 -2.7387,2.5138 -2.7387,2.7818 0,0.3225 1.7345,2.087 2.0583,2.0938 0.1407,0 0.529,0.2197 0.8638,0.4816 0.3348,0.262 0.7307,0.4787 0.8799,0.4817 0.149,0 0.7832,-0.5422 1.4093,-1.2115 z m -9.3541,-2.3109 1.5656,-1.5797 -0.8291,-0.8554 c -0.4559,-0.4705 -0.9412,-0.8554 -1.0785,-0.8554 -0.2854,0 -3.0641,2.6906 -3.0641,2.9669 0,0.2401 1.4646,1.9033 1.6759,1.9033 0.09,0 0.869,-0.7109 1.7302,-1.5797 z m 6.1555,-3.4768 c 1.5716,-1.5757 2.8574,-2.9455 2.8574,-3.0439 0,-0.5944 -0.963,0.1536 -3.483,2.7049 -1.5665,1.5861 -2.8482,2.9558 -2.8482,3.0438 0,0.5623 0.9636,-0.188 3.4738,-2.7048 z m -2.2602,-3.0972 c 2.0354,-2.0424 2.4834,-2.6138 2.2399,-2.8573 -0.2435,-0.2435 -0.8141,0.2165 -2.853,2.3004 -1.4018,1.4326 -2.5486,2.7184 -2.5486,2.8573 0,0.648 0.8127,0.057 3.1617,-2.3004 z m 7.3618,-2.0037 c 1.1891,-1.1713 1.3935,-1.5311 0.8698,-1.5311 -0.3984,0 -2.3834,1.9689 -2.3834,2.364 0,0.5278 0.2992,0.3631 1.5136,-0.8329 z m 3.6878,-2.8945 0.9313,-0.6329 -0.6767,-0.7064 c -0.3724,-0.3886 -0.7598,-0.7065 -0.8611,-0.7065 -0.1015,0 -0.4549,0.454 -0.7857,1.0089 -1.0018,1.6797 -0.311,2.1942 1.3922,1.0369 z"
       id="path6537" /></g></svg>
