<?xml version="1.0" encoding="UTF-8" standalone="no"?>
<!-- Created with Inkscape (http://www.inkscape.org/) -->

<svg
   width="1.7068746in"
   height="1.9516256in"
   viewBox="0 0 43.354615 49.57129"
   version="1.1"
   id="svg5"
   inkscape:version="1.2.2 (732a01da63, 2022-12-09)"
   sodipodi:docname="WildSpace.svg"
   xml:space="preserve"
   inkscape:export-filename="WildSpacePrintOne.png"
   inkscape:export-xdpi="300"
   inkscape:export-ydpi="300"
   xmlns:inkscape="http://www.inkscape.org/namespaces/inkscape"
   xmlns:sodipodi="http://sodipodi.sourceforge.net/DTD/sodipodi-0.dtd"
   xmlns="http://www.w3.org/2000/svg"
   xmlns:svg="http://www.w3.org/2000/svg"><sodipodi:namedview
     id="namedview7"
     pagecolor="#ffffff"
     bordercolor="#111111"
     borderopacity="1"
     inkscape:pageshadow="0"
     inkscape:pageopacity="0"
     inkscape:pagecheckerboard="1"
     inkscape:document-units="mm"
     showgrid="false"
     showguides="true"
     inkscape:zoom="0.41973038"
     inkscape:cx="158.43504"
     inkscape:cy="1654.6336"
     inkscape:window-width="2560"
     inkscape:window-height="1351"
     inkscape:window-x="-9"
     inkscape:window-y="-9"
     inkscape:window-maximized="1"
     inkscape:current-layer="layer1"
     inkscape:showpageshadow="2"
     inkscape:deskcolor="#d1d1d1"
     inkscape:lockguides="false"
     inkscape:guide-bbox="true" /><defs
     id="defs2" /><g
     inkscape:label="Layer 1"
     inkscape:groupmode="layer"
     id="layer1"
     transform="translate(-666.13385,-176.31625)"><path
       id="path6521"
       style="fill:#1a1a1a;stroke:#000000;stroke-width:0.325394;stroke-linejoin:round;stroke-miterlimit:4.95833;stroke-dashoffset:2.55118;paint-order:markers fill stroke"
       d="m 671.29012,176.47895 c -2.4245,0 -4.4975,1.7444 -4.9156,4.1325 h -0.078 v 39.9478 h 0.014 c -0.014,0.057 -0.014,0.1147 -0.014,0.1721 0,2.7578 2.2357,4.9935 4.9936,4.9935 2.7577,0 4.9934,-2.2357 4.9934,-4.9935 -2e-4,-0.057 0,-0.1147 -0.014,-0.1721 h 23.0834 c -0.014,0.057 -0.014,0.1147 -0.014,0.1721 0,2.7578 2.2357,4.9935 4.9934,4.9935 2.7579,0 4.9934,-2.2357 4.9934,-4.9935 0,-0.6233 -0.1175,-1.2411 -0.3443,-1.8214 v -35.6155 c 0.2275,-0.5805 0.3443,-1.1986 0.3443,-1.8221 0,-2.7578 -2.2355,-4.9934 -4.9934,-4.9934 -2.4244,0 -4.4974,1.7444 -4.9153,4.1325 h -23.2259 c -0.4183,-2.3894 -2.4932,-4.1326 -4.9189,-4.1325 z"
       sodipodi:nodetypes="ccccccsscccssccscccc" /><path
       id="path6529"
       style="fill:#ececec;stroke:none;stroke-width:0.178261;stroke-linejoin:round;stroke-miterlimit:4.95833;stroke-dasharray:none;stroke-dashoffset:2.55118;stroke-opacity:1;paint-order:markers fill stroke"
       d="m 687.05842,188.87425 c -2.3289,0.038 -4.1329,0.7836 -5.7983,2.3681 -1.0951,1.0419 -2.2445,2.7598 -2.4676,3.6882 -0.341,1.4205 -1.6446,2.8251 -2.6223,2.8251 -0.5739,0 -1.1396,0.5411 -1.2653,1.2109 -0.1798,0.9581 0.031,1.5095 0.7051,1.8459 0.9193,0.4586 3.2246,0.9892 4.9218,1.1325 0.8409,0.071 1.5993,0.2224 1.6854,0.337 0.086,0.1146 0.505,1.1276 0.931,2.2511 1.009,2.6619 1.1724,2.9599 1.6637,3.0307 0.3924,0.057 0.4119,0.1423 0.4119,1.8495 v 1.7905 l -0.5364,-0.6426 -0.5366,-0.6432 -2.3419,-0.062 c -2.1149,-0.056 -2.4028,-0.024 -2.9707,0.3272 -1.2856,0.7946 -1.0828,2.9738 0.3299,3.5446 0.6314,0.2552 5.5711,0.2209 5.8326,-0.041 0.1219,-0.1226 0.2251,-0.4778 0.2277,-0.7893 l 0.014,-0.5663 0.3026,0.4878 c 0.3688,0.5941 1.1701,1.0899 1.7586,1.0899 0.5977,-7e-4 1.6212,-0.6554 1.8163,-1.1612 0.1769,-0.4589 0.3175,-0.2564 0.4204,0.6047 l 0.057,0.4642 2.6921,0.057 c 2.9887,0.063 3.5618,-0.085 4.1448,-1.0715 0.41,-0.6941 0.3925,-1.2642 -0.061,-2.0075 -0.5092,-0.8351 -0.9911,-0.9704 -3.4646,-0.9704 h -2.1423 l -0.6248,0.6253 c -0.344,0.3438 -0.6698,0.5807 -0.7242,0.5262 -0.055,-0.055 -0.1001,-0.8371 -0.1001,-1.7393 0,-1.51 0.029,-1.6402 0.3673,-1.6402 0.4545,0 0.7019,-0.3744 2.1249,-3.2159 l 1.133,-2.2618 1.112,-0.1437 c 1.8732,-0.2421 4.0488,-0.7378 4.7457,-1.0812 0.9822,-0.484 1.1571,-0.7745 1.0063,-1.6669 -0.1474,-0.872 -0.6471,-1.4721 -1.2257,-1.4721 -0.2159,0 -0.7155,-0.1816 -1.1105,-0.4036 l -0.7179,-0.4037 -0.051,-4.0062 c -0.048,-3.866 -0.062,-4.0067 -0.4212,-4.0067 -0.3497,0 -0.3743,0.1398 -0.42,2.4137 -0.026,1.3276 -0.094,2.5366 -0.1488,2.686 -0.065,0.1785 -0.2399,-0.01 -0.5082,-0.5416 -0.6619,-1.3178 -2.4799,-3.0219 -4.0546,-3.8001 -1.1816,-0.5839 -1.6297,-0.7003 -3.0505,-0.7924 -0.3554,-0.023 -0.6988,-0.032 -1.0315,-0.027 z m 0.2077,0.9966 c 2.0492,-0.01 2.1868,0.018 3.3996,0.6109 1.6929,0.8278 3.0843,2.2428 3.9255,3.9918 0.3629,0.7543 0.6596,1.4833 0.6596,1.6203 0,0.5352 1.034,1.7091 1.886,2.1408 0.4877,0.2471 1.0148,0.4493 1.1714,0.4493 0.1567,0 0.2847,0.094 0.2847,0.2098 0,0.2178 -0.3392,0.1936 -2.8779,-0.2052 -2.2041,-0.3462 -2.0737,-0.2707 -2.2075,-1.2792 -0.067,-0.4994 -0.3732,-1.4141 -0.6826,-2.0331 -1.2922,-2.586 -4.0546,-3.8499 -7.0231,-3.2133 -2.2154,0.4751 -4.1232,2.4644 -4.5201,4.7135 -0.1117,0.6368 -0.2718,1.2347 -0.3544,1.329 -0.083,0.094 -0.7998,0.2818 -1.5941,0.417 -2.3707,0.4034 -3.3937,0.4975 -3.3937,0.3118 0,-0.095 0.3712,-0.2726 0.8252,-0.3939 1.0531,-0.2817 1.9896,-1.1049 2.4141,-2.1219 1.0673,-2.5567 1.6233,-3.4837 2.6763,-4.4586 0.5979,-0.5536 1.5796,-1.2485 2.1812,-1.5443 1.0108,-0.497 1.2571,-0.5384 3.2298,-0.5447 z m -0.2759,3.0671 c 1.0336,-0.042 2.1256,0.175 2.9214,0.6304 1.5751,0.901 2.7394,2.851 2.7394,4.5868 0,2.0003 -1.701,4.3652 -3.621,5.0346 -2.3387,0.8153 -4.8191,-0.094 -6.223,-2.2819 -0.7905,-1.2319 -0.9856,-3.1984 -0.4549,-4.5878 0.4518,-1.1832 1.7369,-2.5151 2.9164,-3.0226 0.502,-0.216 1.1015,-0.3344 1.7217,-0.3595 z m 0.3539,1.1238 c -0.057,-8e-4 -0.1118,-8e-4 -0.1676,5e-4 -1.3931,0.034 -2.7744,0.7941 -3.5545,2.3537 -0.4163,0.8325 -0.4763,1.1458 -0.3932,2.0608 0.1621,1.7894 1.2399,3.1082 2.9865,3.6544 1.0256,0.3208 1.1317,0.3187 2.3055,-0.051 1.3701,-0.4319 2.2964,-1.3804 2.7228,-2.7891 0.2762,-0.9121 0.2938,-1.2188 0.1118,-1.9142 -0.5592,-2.1326 -2.2758,-3.2847 -4.0109,-3.3148 z m -0.036,0.9222 c 0.9788,-8e-4 1.9741,0.4662 2.589,1.3284 0.3576,0.5014 0.4334,0.841 0.4334,1.9433 0,1.2738 -0.031,1.3675 -0.6498,2.0142 -0.3576,0.373 -0.8175,0.7429 -1.0218,0.8222 -2.1444,0.8317 -4.3258,-0.4617 -4.5094,-2.6738 -0.1016,-1.2168 0.3375,-2.0666 1.4998,-2.9086 0.4901,-0.355 1.0714,-0.5249 1.6588,-0.5257 z m -0.2232,1.1622 c -0.9375,0.035 -2.2749,1.5367 -1.668,2.268 0.2939,0.3539 0.6223,0.2564 0.7074,-0.2097 0.09,-0.496 0.7699,-1.1915 1.1637,-1.1915 0.4652,0 0.6281,-0.3586 0.3083,-0.6786 -0.1393,-0.1391 -0.3167,-0.1954 -0.5114,-0.1882 z m 6.8071,3.1338 c 0.035,0 0.074,0.011 0.1161,0.02 0.2244,0.051 1.2226,0.2362 2.2183,0.4108 0.9957,0.1746 1.8104,0.3739 1.8104,0.4431 0,0.069 -0.6092,0.2683 -1.3544,0.4417 -0.7453,0.1733 -1.8736,0.3692 -2.5071,0.4354 -1.3052,0.1363 -1.3626,0.061 -0.8632,-1.1345 0.2055,-0.492 0.33,-0.6382 0.5805,-0.616 z m -12.9782,0.092 c 0.2688,0.021 0.3358,0.1444 0.4222,0.5185 0.071,0.3064 0.1894,0.7035 0.2641,0.8822 0.1162,0.2789 0.033,0.3213 -0.5806,0.2995 -1.2333,-0.044 -4.282,-0.6631 -4.4284,-0.9001 -0.089,-0.1428 2.7244,-0.7033 3.9786,-0.7929 0.1423,-0.011 0.2544,-0.014 0.3441,-0.01 z m 10.3764,3.8303 c 0.035,0.035 -0.3245,0.8287 -0.7987,1.7644 -0.9135,1.8034 -1.2148,2.0162 -2.0069,1.4171 -0.4557,-0.3445 -1.7245,-0.3412 -2.332,0 v -5e-4 c -0.8249,0.4715 -1.0876,0.3504 -1.5619,-0.7221 -0.2435,-0.5505 -0.4996,-1.2608 -0.5693,-1.5782 l -0.1263,-0.577 0.8964,0.4021 c 0.6786,0.3044 1.2809,0.4059 2.4753,0.4175 1.429,0.014 1.6913,-0.042 2.7697,-0.5888 0.655,-0.3322 1.2192,-0.5754 1.2539,-0.5406 z m -3.8874,3.8375 c 0.8987,0 0.9777,0.2353 0.9777,2.9046 0,2.3306 -0.022,2.4741 -0.4124,2.748 -0.5699,0.3992 -0.9394,0.3625 -1.4121,-0.1405 -0.3705,-0.3945 -0.4034,-0.6226 -0.4034,-2.7789 0,-2.5885 0.067,-2.7332 1.2502,-2.7332 z m -5.8925,3.6877 c 1.0479,0 2.0959,0.1058 2.3075,0.3175 0.3381,0.3381 0.5393,1.0167 0.4457,1.5043 l -5e-4,-5e-4 c -0.058,0.3042 -0.3085,0.345 -2.3967,0.3914 -2.0755,0.046 -2.3657,0.014 -2.6435,-0.2929 -0.3924,-0.4336 -0.4026,-1.2202 -0.02,-1.6023 0.2117,-0.2115 1.26,-0.3175 2.3079,-0.3175 z m 11.6561,0.026 c 1.9222,0 2.0834,0.028 2.3526,0.4124 0.3992,0.5699 0.3625,0.9394 -0.1407,1.412 -0.3928,0.369 -0.6252,0.4036 -2.6929,0.4036 h -2.2623 v -0.8067 c 0,-1.2704 0.2915,-1.4213 2.743,-1.4213 z" /></g></svg>
